<?xml version="1.0" standalone="no"?>
<!DOCTYPE svg PUBLIC "-//W3C//DTD SVG 20010904//EN"
 "http://www.w3.org/TR/2001/REC-SVG-20010904/DTD/svg10.dtd">
<svg version="1.0" xmlns="http://www.w3.org/2000/svg"
 width="1024.000000pt" height="1024.000000pt" viewBox="0 0 1024.000000 1024.000000"
 preserveAspectRatio="xMidYMid meet">

<g transform="translate(0.000000,1024.000000) scale(0.100000,-0.100000)"
fill="#000000" stroke="none">
<path d="M599 9680 c-9 -449 21 -638 133 -865 70 -142 116 -206 260 -368 49
-54 88 -99 88 -101 0 -3 -24 4 -52 15 -156 57 -467 335 -582 521 l-38 63 6
-100 c8 -128 56 -324 106 -430 104 -226 275 -422 523 -598 45 -32 93 -69 107
-83 l25 -24 -23 0 c-76 0 -421 160 -647 299 -71 44 -131 78 -133 76 -7 -6 75
-153 142 -255 80 -121 217 -274 313 -351 113 -90 183 -135 348 -225 83 -45
170 -95 195 -111 44 -27 44 -28 17 -31 -49 -6 -341 77 -646 183 -73 25 -135
44 -137 42 -8 -8 236 -265 303 -320 218 -177 549 -327 818 -372 129 -21 140
-24 126 -38 -26 -26 -587 -2 -744 33 -38 8 -38 8 -20 -12 30 -33 173 -125 248
-158 143 -64 410 -140 582 -165 89 -14 174 -27 189 -31 l26 -7 -31 -13 c-35
-15 -189 -34 -288 -35 -37 -1 -79 -4 -93 -8 -23 -7 -21 -10 35 -38 147 -75
378 -126 573 -127 81 -1 132 -5 132 -11 0 -12 -49 -34 -171 -79 -47 -17 -88
-35 -90 -41 -6 -15 238 -94 294 -95 l47 0 0 55 c0 70 26 235 47 300 31 95 103
230 158 295 30 35 55 72 55 81 0 36 148 151 258 200 37 17 80 38 96 46 16 9
54 23 86 33 32 10 123 56 202 103 78 47 154 90 168 95 30 11 87 73 150 162 91
128 200 206 350 250 41 12 82 30 91 40 12 14 20 15 35 7 19 -10 19 -10 0 12
-11 12 -26 19 -33 17 -7 -3 -12 -2 -10 2 3 11 -87 124 -144 181 -25 25 -71 79
-103 119 -31 39 -62 72 -69 72 -7 0 -37 25 -67 56 -66 67 -96 84 -152 84 -24
0 -53 6 -64 14 -11 8 -69 26 -130 41 -78 19 -124 37 -163 62 l-54 35 22 -30
c11 -17 21 -33 21 -37 0 -4 -25 -4 -56 0 -78 9 -80 10 -251 53 -84 21 -153 35
-153 31 0 -4 8 -10 18 -12 13 -4 13 -5 2 -6 -9 0 -38 22 -65 49 -27 28 -45 50
-39 50 6 0 40 -10 75 -22 43 -14 95 -22 159 -24 52 -2 122 -10 155 -18 33 -8
62 -11 65 -6 6 9 224 -31 273 -49 48 -19 51 -12 11 24 -32 28 -35 35 -19 34
34 0 127 -25 194 -52 178 -73 259 -147 413 -376 99 -147 201 -276 230 -292 16
-8 46 -6 87 7 10 3 -7 25 -52 65 -62 56 -158 181 -286 372 -81 120 -165 201
-253 241 -138 64 -262 95 -473 120 -71 8 -146 20 -165 27 -19 6 -100 12 -180
14 -80 2 -187 12 -238 21 -51 9 -96 14 -99 10 -4 -4 3 -29 14 -56 26 -61 22
-62 -86 -15 -274 117 -477 244 -638 399 -29 27 -55 47 -59 44 -15 -15 75 -226
129 -302 l20 -28 -24 6 c-59 17 -378 182 -472 244 -325 218 -624 551 -825 917
-33 61 -70 126 -81 145 l-20 35 -2 -85z m172 -367 c110 -172 365 -453 514
-569 169 -132 506 -333 713 -425 82 -37 182 -97 182 -110 0 -23 -54 -4 -173
60 -71 38 -174 89 -230 112 -331 139 -617 355 -839 634 -97 122 -240 365 -214
365 2 0 23 -30 47 -67z m13 -885 c91 -73 353 -231 451 -273 20 -8 20 -9 -1
-12 -35 -7 -274 102 -372 169 -68 46 -180 139 -231 192 -24 25 -48 43 -53 40
-5 -3 -8 -2 -7 3 2 8 -22 67 -44 108 -5 11 25 -16 69 -60 43 -44 128 -119 188
-167z m-166 27 c0 -5 -6 4 -13 20 -8 17 -14 37 -14 45 0 8 7 -1 14 -20 7 -19
13 -39 13 -45z m1515 6 c148 -101 359 -218 492 -270 69 -28 173 -96 162 -107
-2 -2 -17 1 -33 6 -16 5 -69 22 -119 36 -49 14 -133 48 -188 75 -54 27 -102
47 -106 44 -22 -13 -217 162 -250 223 -15 29 -8 28 42 -7z m-79 -382 c5 -4 -8
-3 -30 2 -21 6 -41 13 -44 16 -9 9 65 -9 74 -18z m261 -69 c25 -11 -1 -11 -35
0 -20 6 -21 8 -5 8 11 0 29 -3 40 -8z m-41 -118 c84 -25 146 -49 157 -61 10
-10 42 -26 71 -34 133 -38 135 -39 293 -46 38 -2 38 -3 15 -13 -49 -20 -244
-2 -385 36 -167 44 -194 54 -225 83 -14 13 -39 31 -57 39 -35 17 -56 50 -26
41 10 -2 80 -23 157 -45z m-1603 -61 c138 -73 325 -153 489 -211 79 -28 149
-55 154 -60 15 -15 -64 -23 -114 -12 -59 14 -372 147 -420 179 -40 27 -65 30
-56 8 12 -32 -14 -12 -83 65 -40 44 -71 80 -68 80 2 0 46 -22 98 -49z m1244
-332 c214 -107 275 -142 265 -152 -8 -8 -139 36 -213 72 -37 17 -93 55 -125
82 -57 51 -138 99 -166 99 -8 0 -17 4 -20 9 -13 21 52 -7 259 -110z m-124 16
c14 -11 36 -27 48 -35 24 -16 27 -30 8 -30 -8 0 -30 18 -50 40 -19 22 -40 40
-45 40 -5 0 -17 10 -28 22 l-19 21 30 -19 c17 -10 42 -27 56 -39z m684 -16 c5
-5 16 -9 25 -9 17 -1 361 -129 345 -130 -26 0 -227 42 -282 60 -34 11 -73 20
-87 20 -14 0 -28 5 -31 11 -4 5 -28 24 -53 40 l-47 30 60 -7 c33 -3 64 -10 70
-15z m165 -25 c0 -2 -13 -4 -30 -4 -16 0 -30 4 -30 8 0 5 14 7 30 4 17 -2 30
-6 30 -8z m-1697 -318 c166 -56 296 -89 468 -122 101 -18 187 -34 191 -34 4 0
5 -6 2 -13 -3 -9 10 -20 37 -30 24 -9 40 -19 37 -22 -18 -19 -497 91 -598 137
-112 50 -113 51 -106 33 4 -13 -2 -11 -32 7 -60 36 -98 67 -84 68 8 0 46 -11
85 -24z m1072 -36 c44 -10 70 -18 57 -19 -30 -1 -162 28 -182 41 -10 6 -5 7
15 2 17 -4 66 -15 110 -24z m1018 3 c-7 -2 -19 -2 -25 0 -7 3 -2 5 12 5 14 0
19 -2 13 -5z m-815 -63 c29 -7 51 -14 49 -17 -8 -7 -160 17 -177 29 -18 11 47
5 128 -12z m-62 -54 c19 -14 126 -40 379 -91 72 -15 134 -31 139 -36 23 -21
-185 -1 -276 26 -98 30 -173 56 -215 76 -24 10 -49 19 -57 19 -8 0 -18 5 -21
10 -9 15 28 12 51 -4z m330 -336 c14 0 22 -4 19 -10 -8 -12 -72 -13 -79 -1 -8
12 6 22 22 16 7 -3 25 -5 38 -5z m-427 -124 c-3 -3 -72 -15 -154 -27 -154 -22
-311 -22 -365 -1 -19 8 13 11 120 11 80 1 170 5 200 10 58 9 206 14 199 7z
m301 -285 c0 -10 -85 -31 -122 -31 -33 0 -15 11 44 25 67 16 78 17 78 6z"/>
<path d="M6390 9439 c-324 -65 -797 -300 -1185 -589 -190 -142 -285 -242 -285
-301 0 -59 92 -132 217 -173 80 -27 97 -44 89 -92 -6 -30 -21 -51 -64 -92 -63
-59 -129 -94 -215 -113 -32 -7 -60 -16 -63 -20 -12 -20 122 -88 175 -89 26 0
32 -3 27 -16 -3 -9 -6 -17 -6 -19 0 -2 -35 -31 -77 -66 -83 -66 -166 -110
-248 -131 -27 -6 -54 -15 -58 -19 -17 -14 121 -71 187 -78 74 -8 84 -14 66
-37 -38 -45 -232 -111 -515 -174 -379 -84 -449 -112 -553 -225 -37 -41 -88
-108 -112 -149 -46 -78 -75 -101 -155 -126 -52 -16 -165 -83 -233 -137 -46
-37 -59 -43 -101 -43 -32 0 -56 -6 -73 -19 -13 -11 -42 -22 -64 -26 -67 -11
-72 -15 -107 -64 -24 -33 -56 -60 -102 -85 -52 -29 -65 -41 -60 -54 15 -35 8
-46 -47 -89 -49 -37 -63 -57 -107 -146 -67 -136 -82 -195 -90 -364 -3 -78 -10
-146 -16 -152 -5 -5 -48 -26 -95 -47 -159 -69 -424 -228 -594 -356 -66 -50
-145 -101 -175 -116 -80 -36 -48 -38 43 -2 132 52 183 81 436 242 110 70 211
126 313 172 l78 36 -3 -56 -3 -56 -111 -57 c-102 -53 -193 -111 -334 -215 -30
-22 -59 -40 -63 -38 -5 1 -5 -2 -2 -9 4 -6 -7 -24 -23 -40 -32 -31 -112 -88
-124 -89 -7 0 -236 -130 -288 -164 -19 -12 -78 -48 -130 -79 -138 -83 -162
-108 -40 -42 58 30 209 108 335 172 256 129 289 148 281 170 -9 23 53 78 139
123 44 23 138 80 209 127 71 47 138 88 147 90 14 4 19 -7 29 -65 11 -59 10
-81 -4 -155 -19 -96 -13 -159 25 -247 33 -74 117 -150 167 -150 19 0 168 -166
251 -279 48 -66 101 -120 136 -138 32 -17 59 -18 303 -12 l154 4 -7 -45 c-4
-25 -13 -59 -20 -77 -13 -31 -15 -32 -63 -26 -43 5 -60 1 -122 -28 -79 -36
-135 -91 -176 -172 -15 -28 -41 -59 -65 -75 -141 -96 -211 -183 -260 -326 -62
-179 -60 -277 6 -343 44 -44 83 -44 160 3 90 53 135 94 206 185 35 45 71 91
81 103 9 12 19 18 23 15 11 -12 -112 -183 -173 -242 -67 -63 -168 -117 -221
-117 -88 0 -171 58 -171 120 0 17 -2 30 -4 30 -7 0 -73 -38 -131 -75 -122 -78
-125 -69 -8 21 102 78 143 114 143 126 0 16 -23 7 -92 -38 -104 -67 -109 -68
-178 -39 -79 33 -116 32 -172 -5 -67 -44 -138 -124 -138 -155 0 -34 -20 -51
-123 -109 -97 -55 -172 -123 -223 -201 -79 -124 -108 -260 -64 -300 19 -18 23
-18 103 -1 45 10 94 22 109 26 32 10 227 139 318 210 58 46 69 51 105 47 29
-3 61 4 120 28 141 57 262 88 479 120 21 3 109 24 195 46 86 23 196 50 244 60
49 10 137 34 195 53 110 36 203 61 259 69 17 3 36 8 42 12 6 3 69 19 141 35
113 26 138 35 183 69 47 35 182 112 477 272 288 155 479 291 676 481 91 87
124 112 124 92 0 -14 -114 -156 -156 -193 -155 -144 -404 -299 -849 -529 -165
-85 -302 -157 -305 -160 -3 -3 21 -2 53 2 204 23 744 314 1080 583 120 96 184
166 233 257 16 28 42 70 60 93 18 23 44 78 59 122 24 73 31 83 76 116 40 29
57 51 90 119 23 47 53 96 68 109 14 13 89 66 166 118 160 107 258 200 333 315
29 44 58 89 67 101 8 12 56 50 107 86 89 62 205 172 242 230 10 15 23 27 28
27 6 0 44 -31 84 -70 85 -80 131 -106 223 -125 50 -11 72 -21 89 -42 63 -75
98 -107 140 -125 l46 -21 -26 -22 c-14 -12 -57 -32 -95 -43 -37 -12 -99 -41
-138 -64 -76 -47 -91 -55 -180 -93 -73 -32 -91 -47 -121 -107 -13 -25 -68
-113 -122 -195 -54 -81 -104 -162 -109 -179 -9 -25 -5 -62 18 -184 15 -84 35
-163 44 -176 18 -28 52 -46 120 -64 75 -20 135 -53 180 -100 56 -59 114 -100
141 -100 32 0 87 58 102 108 14 46 16 47 84 29 35 -9 60 -26 96 -64 51 -54 95
-73 164 -73 28 0 47 -9 82 -39 113 -98 210 -80 386 70 188 160 200 178 226
324 20 115 32 136 99 174 88 50 154 155 185 297 12 57 27 95 44 117 15 18 48
58 74 89 27 32 73 106 104 165 52 102 56 116 73 239 23 171 12 276 -44 429
-39 105 -40 107 -144 214 -61 62 -116 129 -131 158 -27 54 -44 70 -141 133
-33 22 -96 64 -140 95 -97 68 -124 80 -223 100 -66 14 -135 43 -332 139 -14 6
-54 48 -90 91 -101 125 -169 187 -247 228 -40 21 -192 82 -338 137 -146 55
-274 104 -285 110 -16 9 -18 15 -9 38 19 49 11 123 -25 227 -46 132 -53 183
-32 227 31 66 143 102 199 65 34 -22 76 -111 84 -175 3 -29 9 -52 12 -52 10 0
74 69 99 106 83 122 100 333 38 470 -47 103 -152 187 -249 200 -62 9 -56 27
12 36 72 11 91 23 91 57 0 53 -38 93 -137 141 -51 25 -92 48 -93 51 0 3 20 19
44 37 95 66 128 171 93 293 -42 144 -226 373 -346 432 -67 33 -149 35 -291 6z
m243 -53 c47 -19 154 -114 208 -182 l47 -59 -39 3 c-22 2 -39 9 -39 16 0 14
-111 124 -157 155 -31 21 -31 21 -26 1 3 -12 -2 -39 -12 -60 -10 -21 -15 -46
-12 -54 3 -9 1 -18 -4 -22 -10 -6 -5 105 7 148 11 37 -77 35 -231 -3 -106 -27
-145 -41 -139 -51 3 -4 20 -8 38 -8 39 0 96 -18 96 -31 0 -10 -73 -12 -83 -2
-4 3 -63 5 -132 4 -69 -1 -125 1 -125 6 0 9 174 73 300 109 152 44 248 53 303
30z m-619 -161 c6 -17 -40 -51 -84 -62 -71 -17 -672 -381 -763 -461 -9 -8 -19
-13 -22 -10 -3 2 13 18 35 34 23 16 52 39 66 52 14 12 51 38 82 58 31 20 71
49 87 64 17 15 89 62 160 105 72 43 141 86 155 95 35 24 258 140 269 140 5 0
11 -7 15 -15z m404 -51 c12 -3 22 -12 22 -19 0 -10 -16 -12 -62 -9 -99 7 -218
24 -242 35 -24 11 244 4 282 -7z m175 -52 c33 -34 35 -77 5 -109 -45 -48 -108
-15 -108 57 0 44 26 80 58 80 10 0 30 -13 45 -28z m-266 2 c72 -4 114 -11 117
-19 9 -26 17 -130 8 -117 -5 7 -35 20 -67 28 -53 14 -178 71 -130 60 40 -10
178 -26 183 -22 11 11 -12 26 -40 26 -74 0 -228 38 -228 56 0 3 10 4 23 1 12
-3 72 -9 134 -13z m628 -78 c49 -101 43 -194 -16 -257 -38 -41 -47 -32 -15 16
29 42 41 93 31 127 -4 12 -21 54 -37 91 -48 112 -16 131 37 23z m-105 55 c-11
-7 -149 -31 -175 -31 -2 0 -1 9 2 20 5 18 14 20 97 20 57 0 85 -4 76 -9z m-30
-49 c0 -5 -7 -15 -15 -22 -12 -10 -15 -10 -15 0 0 14 -73 4 -78 -11 -2 -5 -9
-9 -15 -9 -7 0 -25 -13 -40 -30 -38 -39 -56 -39 -23 1 14 17 26 38 26 48 0 10
2 20 4 22 9 9 156 9 156 1z m-58 -52 c-12 -5 -26 -10 -30 -11 -4 -1 -13 -10
-20 -20 -7 -11 -22 -19 -33 -19 -18 0 -17 3 8 24 32 26 50 34 78 35 18 0 18
-1 -3 -9z m-482 -16 c0 -2 -12 -4 -26 -4 -14 0 -23 4 -20 9 6 8 46 4 46 -5z
m150 -4 c8 -5 11 -10 5 -10 -5 0 -17 5 -25 10 -8 5 -10 10 -5 10 6 0 17 -5 25
-10z m-610 -14 c0 -18 -19 -33 -55 -42 l-30 -7 30 24 c17 13 32 27 33 31 6 13
22 9 22 -6z m728 -13 c-10 -2 -28 -2 -40 0 -13 2 -5 4 17 4 22 1 32 -1 23 -4z
m-43 -68 c131 -18 160 -28 234 -75 69 -45 78 -58 24 -34 -294 128 -719 85
-1120 -113 -62 -31 -116 -54 -119 -50 -8 7 217 139 284 166 28 12 74 30 102
41 106 43 285 74 450 78 25 1 90 -5 145 -13z m-166 -178 c-2 -1 -13 -9 -24
-17 -19 -14 -19 -14 -6 3 7 9 18 17 24 17 6 0 8 -1 6 -3z m32 -9 c0 -9 2 -9 5
-2 3 8 20 8 57 2 67 -12 79 -24 25 -26 -24 -1 -46 3 -51 10 -7 10 -10 10 -14
1 -7 -19 -21 -16 -33 7 -7 14 -7 20 0 20 5 0 10 -6 11 -12z m166 -34 c-3 -3
-12 -4 -19 -1 -8 3 -5 6 6 6 11 1 17 -2 13 -5z m293 -31 c96 -27 187 -73 222
-110 22 -23 20 -23 -27 5 -27 17 -120 54 -205 83 -85 28 -157 54 -160 56 -10
10 85 -9 170 -34z m-807 20 c-7 -2 -21 -2 -30 0 -10 3 -4 5 12 5 17 0 24 -2
18 -5z m480 -32 c15 -1 27 -4 27 -8 0 -5 -55 -8 -123 -9 -136 -1 -270 -18
-364 -44 -34 -10 -64 -15 -68 -12 -15 16 188 59 319 68 50 4 92 7 93 8 1 0 21
0 45 -1 23 0 55 -2 71 -2z m-738 -61 c-3 -5 1 -10 9 -10 9 0 16 5 16 10 0 6 5
10 11 10 5 0 8 -4 4 -9 -3 -6 12 -12 32 -14 24 -2 14 -4 -28 -5 -37 -1 -82 -5
-100 -8 l-34 -5 40 20 c46 22 59 25 50 11z m-752 -40 c4 -17 3 -19 -9 -9 -8 6
-14 18 -14 26 0 20 16 8 23 -17z m935 23 c-10 -2 -26 -2 -35 0 -10 3 -2 5 17
5 19 0 27 -2 18 -5z m519 -17 c10 -10 25 -7 18 5 -11 17 164 -11 225 -36 19
-8 47 -17 61 -19 28 -4 89 -33 89 -41 0 -3 -17 -3 -37 0 -30 5 -53 -1 -109
-28 -85 -42 -135 -89 -152 -144 -18 -61 -64 -118 -117 -143 -28 -13 -105 -32
-187 -46 -174 -29 -231 -59 -289 -153 -15 -24 -13 -28 45 -104 103 -137 154
-182 260 -232 53 -24 96 -47 96 -49 0 -3 -13 -3 -29 0 -80 16 -251 -42 -327
-111 -45 -42 -41 -41 41 1 86 45 158 64 239 63 l71 -1 -52 -8 c-131 -19 -215
-61 -323 -162 -79 -74 -87 -94 -12 -27 56 50 113 77 179 85 l48 5 -22 -19
c-12 -11 -37 -63 -57 -120 -44 -127 -65 -168 -111 -214 -48 -49 -61 -48 -35 2
30 59 81 201 77 214 -2 6 -13 -7 -25 -30 -27 -53 -100 -134 -163 -180 -27 -20
-99 -55 -159 -79 l-110 -43 24 42 c13 22 51 93 85 157 34 63 82 139 108 168
25 28 43 54 41 57 -3 2 -44 -27 -92 -66 -47 -38 -126 -93 -174 -121 -48 -28
-100 -60 -115 -71 -75 -53 -7 26 78 90 l30 23 -42 -20 c-23 -11 -70 -45 -105
-74 -58 -49 -148 -97 -148 -79 0 4 15 37 34 72 19 36 49 101 66 144 28 72 64
141 116 222 18 28 17 27 -21 -6 -48 -42 -141 -100 -216 -134 -50 -23 -194 -66
-220 -66 -6 0 13 27 43 61 54 62 169 212 165 216 -2 1 -25 -9 -53 -22 -63 -30
-160 -47 -249 -43 l-70 3 55 33 c30 18 98 71 150 118 52 47 121 104 153 125
31 22 57 42 57 44 0 2 -44 -12 -97 -32 -85 -31 -113 -36 -213 -40 l-115 -5 60
36 c33 20 101 70 150 112 50 41 126 101 169 134 l80 60 -37 0 c-20 0 -82 -5
-137 -11 -97 -11 -134 -8 -94 8 27 10 241 151 249 163 4 6 -6 7 -27 4 l-33 -7
50 52 c61 64 154 135 215 166 45 22 117 36 285 55 50 6 104 12 120 14 255 36
523 51 542 32z m-1317 -96 c8 -5 11 -10 5 -10 -5 0 -17 5 -25 10 -8 5 -10 10
-5 10 6 0 17 -5 25 -10z m1720 -48 c0 -12 -9 -18 -26 -20 -14 -1 -33 -7 -42
-12 -13 -8 -7 -10 23 -5 67 9 131 3 213 -21 71 -20 151 -99 183 -181 40 -105
24 -307 -30 -374 -17 -21 -17 -21 -13 15 5 47 -21 116 -55 146 -45 39 -123 67
-208 74 -44 3 -107 9 -140 12 -43 4 -56 2 -45 -5 8 -6 30 -11 48 -11 17 0 32
-5 32 -11 0 -6 -7 -8 -17 -5 -33 13 -176 16 -190 5 -9 -8 -13 -8 -13 0 0 7
-18 10 -47 9 l-48 -1 45 -6 c33 -5 9 -9 -95 -14 -77 -4 -156 -10 -175 -12 -30
-4 -31 -3 -10 4 14 5 21 10 15 11 -5 1 -1 6 10 11 15 7 11 8 -15 3 -120 -18
-180 -46 -180 -83 0 -28 39 -73 59 -66 10 3 23 -6 36 -25 35 -54 106 -105 329
-239 209 -124 280 -160 293 -147 4 4 -5 48 -20 99 -34 119 -41 166 -28 197 9
23 10 21 10 -19 1 -24 19 -98 42 -166 24 -74 39 -136 37 -156 -3 -31 -6 -34
-33 -33 -52 2 -166 63 -228 123 -63 60 -94 80 -136 87 -14 3 -35 15 -46 28
-11 13 -47 37 -81 55 -33 17 -84 52 -112 77 -28 25 -64 47 -79 50 -44 8 -72
55 -89 151 -9 50 74 86 281 122 61 10 122 24 138 30 47 18 110 92 135 158 32
86 89 128 202 149 36 7 66 13 68 13 1 1 2 -7 2 -17z m-2095 -961 c-7 -23 19
-41 62 -41 22 0 25 -2 13 -10 -8 -5 -25 -10 -38 -10 -13 0 -74 -15 -135 -34
-62 -18 -138 -39 -170 -46 -34 -7 -68 -21 -83 -35 -30 -28 -114 -58 -137 -49
-9 3 -19 13 -22 22 -3 10 -19 25 -36 35 -61 34 -54 36 321 130 124 31 226 56
228 57 2 0 1 -9 -3 -19z m1495 -107 c0 -4 -11 -38 -25 -77 -14 -38 -24 -75
-22 -80 3 -10 32 30 69 95 9 16 20 33 24 36 4 4 4 2 1 -4 -4 -6 -9 -38 -13
-70 -9 -89 -52 -160 -154 -257 -48 -45 -101 -90 -119 -100 l-31 -18 21 53 c12
29 34 94 49 145 35 120 90 212 155 260 31 23 45 28 45 17z m358 -31 c16 -42
55 -224 49 -230 -3 -3 -16 15 -28 39 -31 62 -59 99 -70 93 -5 -4 -9 -45 -9
-93 0 -69 -2 -83 -12 -73 -18 17 -18 255 0 273 10 10 14 10 21 -1 7 -11 10 -9
16 8 8 26 19 21 33 -16z m-2465 -60 c29 -26 78 -72 110 -102 56 -55 57 -55 90
-42 71 29 116 44 216 72 57 17 129 38 160 48 31 11 75 19 98 19 23 1 53 8 67
18 14 9 26 12 26 6 0 -6 -9 -13 -19 -17 -38 -12 -30 -65 10 -65 15 0 17 -10
17 -64 -1 -36 -5 -70 -10 -78 -7 -10 -8 -9 -4 4 5 18 -20 52 -33 44 -4 -3 -13
9 -20 25 -10 22 -19 29 -41 29 -22 0 -29 -5 -32 -22 -2 -16 -9 -22 -20 -20
-12 2 -18 -4 -18 -18 0 -21 -19 -29 -21 -7 0 10 -2 10 -6 0 -7 -19 -23 -16
-24 5 -1 15 -2 14 -6 -2 -4 -15 -7 -16 -14 -5 -6 10 -9 10 -9 2 0 -7 -9 -13
-20 -13 -17 0 -20 -7 -20 -40 0 -30 -4 -40 -16 -40 -8 0 -22 -7 -30 -15 -9 -8
-11 -15 -5 -15 6 0 11 -9 11 -19 0 -15 -8 -21 -32 -24 -32 -4 -31 -4 6 -5 27
-2 37 -6 33 -15 -3 -7 3 -18 13 -24 26 -17 110 -132 110 -151 -1 -16 -7 -11
-87 79 -32 36 -46 45 -77 53 l-29 7 31 -26 c37 -31 114 -144 109 -159 -2 -6 7
-20 20 -32 22 -21 32 -49 14 -42 -14 5 -133 118 -124 118 4 0 19 -9 33 -20 52
-41 37 -17 -44 68 -46 48 -98 104 -116 125 -17 20 -39 37 -48 37 -13 0 -13 -2
-3 -12 6 -7 17 -13 23 -13 6 0 13 -7 15 -15 4 -13 3 -13 -6 0 -10 13 -11 13
-11 0 -1 -12 -3 -11 -11 3 -8 14 -14 15 -31 6 -14 -8 -23 -8 -31 0 -14 14 -57
14 -57 1 0 -5 -4 -10 -10 -10 -5 0 -10 7 -10 15 0 8 7 15 17 15 9 0 14 3 10 6
-12 12 -49 -8 -43 -23 4 -11 2 -13 -9 -9 -9 3 -15 0 -15 -9 0 -9 -10 -15 -24
-15 -32 0 -41 -16 -19 -30 15 -10 14 -11 -9 -7 -17 2 -25 0 -21 -6 4 -6 -4 -7
-21 -3 -16 4 -33 3 -39 -2 -18 -14 -75 -31 -81 -25 -3 3 -27 8 -52 10 -31 2
-53 11 -64 23 -10 11 -22 20 -28 20 -6 0 -22 14 -36 31 -61 72 -19 208 96 315
52 47 137 102 161 104 4 0 31 -21 60 -47z m2652 -3 c98 -28 487 -169 512 -185
31 -20 29 -25 -15 -57 -52 -36 -96 -32 -159 15 -62 47 -160 98 -250 131 -125
44 -161 67 -177 110 -5 15 -3 17 11 11 10 -4 45 -15 78 -25z m-430 -90 c17
-75 17 -76 -6 -119 -22 -42 -22 -47 -12 -185 6 -82 7 -151 2 -164 -5 -13 -9
-35 -9 -50 -1 -25 -1 -26 -12 -7 -6 11 -31 50 -55 87 -24 36 -58 99 -75 138
l-32 72 39 37 40 36 8 -55 c10 -70 20 -79 36 -32 8 20 18 40 24 44 6 4 10 45
8 103 -1 54 1 123 5 154 8 65 13 57 39 -59z m73 -56 c4 -86 -2 -153 -14 -141
-12 12 -25 148 -19 206 10 91 26 57 33 -65z m-1418 -159 c5 -27 9 -76 9 -107
1 -31 6 -60 11 -63 13 -8 12 -98 -2 -143 -6 -18 -12 -32 -14 -29 -19 19 -46
326 -36 415 l6 57 8 -40 c5 -22 13 -62 18 -90z m1828 55 c22 0 111 -46 191
-98 35 -23 69 -43 75 -45 7 -3 -9 -45 -40 -108 -28 -57 -57 -125 -64 -151 -7
-27 -16 -48 -20 -48 -4 0 -6 33 -4 73 3 72 3 73 -27 91 l-31 18 2 -108 c4
-145 2 -174 -10 -174 -5 0 -10 6 -10 13 0 18 -52 86 -66 87 -18 0 -18 127 0
137 14 8 20 25 17 51 0 7 -6 10 -13 6 -6 -4 -8 -3 -5 4 4 5 -1 24 -10 41 -16
27 -16 33 -3 41 12 8 13 14 3 41 -7 18 -9 37 -5 43 12 16 14 74 2 81 -5 3 -9
14 -9 23 1 15 2 15 6 0 2 -10 12 -18 21 -18z m637 -9 c58 -34 158 -129 180
-171 l15 -30 -32 6 -33 6 39 -24 c46 -27 47 -42 3 -45 -82 -5 -124 -15 -183
-43 -35 -17 -68 -29 -73 -25 -5 3 -12 1 -16 -5 -3 -5 -1 -10 5 -10 7 0 5 -6
-4 -15 -16 -16 -27 -19 -25 -7 4 25 -5 29 -67 27 -45 -2 -62 0 -53 7 12 8 11
9 -1 5 -8 -2 -14 -9 -13 -16 4 -17 -49 -40 -72 -30 -11 4 -14 8 -7 8 37 2 48
75 14 95 -12 7 -12 10 -1 17 10 6 11 9 2 9 -8 0 -3 10 10 23 12 12 26 22 31
22 5 0 11 6 14 13 5 16 -17 15 -50 -2 -52 -27 -28 0 73 85 102 84 165 129 184
129 6 0 33 -13 60 -29z m-1980 -52 c-33 -40 -30 -64 10 -63 39 2 204 46 275
73 84 32 89 26 30 -35 -104 -106 -290 -266 -304 -261 -14 6 -60 133 -71 198
-5 28 -2 41 17 65 13 16 33 43 43 59 16 24 20 27 23 12 2 -9 -8 -31 -23 -48z
m1139 -102 c-2 -119 -19 -287 -35 -351 l-10 -39 -44 94 c-24 52 -46 105 -49
119 l-7 25 18 -25 c40 -55 62 -75 71 -65 9 9 32 262 32 347 0 26 2 30 13 19 8
-8 12 -46 11 -124z m-2898 42 c38 -23 80 -49 94 -57 l25 -16 -30 -6 c-23 -4
-31 -11 -33 -32 -3 -29 25 -71 42 -61 6 3 5 0 -3 -8 -10 -11 -15 -11 -18 -1
-7 19 -23 14 -23 -8 0 -14 -7 -20 -25 -21 -14 -1 -28 -2 -32 -4 -5 -1 -21 -5
-36 -10 -18 -5 -33 -3 -40 4 -6 6 -30 11 -54 11 -36 0 -43 -3 -43 -20 0 -25
-20 -27 -21 -2 -1 16 -2 16 -6 0 -6 -24 -34 -23 -40 2 -3 11 -12 20 -20 20
-12 0 -13 -3 -4 -14 9 -11 9 -16 0 -22 -14 -8 -83 61 -74 75 3 6 -7 9 -21 8
-42 -3 -37 15 16 58 51 43 235 144 261 145 8 0 46 -19 85 -41z m724 -39 c0 -5
-2 -10 -4 -10 -3 0 -8 5 -11 10 -3 6 -1 10 4 10 6 0 11 -4 11 -10z m42 -72
c12 -17 17 -28 10 -25 -6 4 -21 22 -34 39 -12 17 -17 28 -10 25 6 -4 21 -22
34 -39z m1643 -64 c-18 -63 -88 -211 -92 -197 -7 20 98 282 105 262 2 -5 -4
-34 -13 -65z m-715 -38 c49 -124 46 -121 78 -96 51 39 174 122 176 118 39 -58
76 -156 76 -199 0 -52 -49 -180 -106 -275 -70 -119 -78 -125 -100 -82 -30 58
-92 256 -123 391 -31 137 -47 236 -38 227 3 -3 19 -41 37 -84z m-1400 70 c0
-2 -7 -6 -15 -10 -8 -3 -15 -1 -15 4 0 6 7 10 15 10 8 0 15 -2 15 -4z m-726
-68 c61 -50 143 -144 168 -193 22 -41 11 -46 -22 -10 -13 14 -20 25 -15 25 15
0 -28 40 -81 75 -68 46 -80 45 -21 -1 51 -40 64 -57 20 -26 -44 30 -112 63
-183 87 -84 28 -87 49 -8 53 34 2 61 9 68 17 17 20 16 20 74 -27z m4568 -21
c71 -41 71 -51 4 -44 -50 5 -62 2 -93 -19 -20 -13 -54 -29 -77 -36 -23 -6 -49
-18 -58 -26 -14 -11 -18 -12 -18 -2 0 10 -3 10 -15 0 -8 -7 -15 -18 -15 -25 0
-7 -6 -17 -13 -23 -10 -8 -13 -6 -14 9 -1 12 3 17 10 13 9 -5 9 -3 0 6 -10 11
-16 10 -32 -4 -12 -11 -21 -14 -26 -7 -3 6 -15 11 -26 11 -10 0 -19 5 -19 11
0 5 -4 7 -10 4 -5 -3 -10 -1 -10 5 0 6 7 13 15 16 8 4 15 11 15 16 0 12 -39
-12 -97 -61 -44 -36 -74 -48 -70 -28 1 7 -5 11 -13 9 -11 -3 -11 1 3 16 9 10
17 23 17 29 0 21 84 86 147 114 91 42 125 48 243 46 94 -2 110 -5 152 -30z
m-1626 -23 c21 -26 40 -61 43 -82 l7 -37 19 33 c74 124 5 -149 -83 -328 l-56
-115 -8 45 c-37 220 -45 295 -36 329 9 34 71 201 75 201 1 0 18 -21 39 -46z
m-3070 -40 c70 -24 115 -57 171 -127 85 -106 83 -113 -9 -31 -73 65 -129 99
-178 109 l-35 7 30 -25 30 -25 -50 5 c-65 8 -126 25 -128 38 -1 6 18 13 43 16
l45 6 -45 2 -45 2 24 19 c29 24 83 26 147 4z m335 -11 c13 -16 12 -17 -3 -4
-10 7 -18 15 -18 17 0 8 8 3 21 -13z m1875 -158 c36 -138 224 -605 296 -734
32 -58 33 -82 0 -29 -87 142 -265 538 -306 682 -20 69 -46 204 -45 236 0 27
27 -49 55 -155z m2835 103 c61 -26 54 -35 -34 -42 -45 -4 -86 -11 -90 -15 -10
-10 90 -19 105 -10 6 4 22 0 37 -7 14 -8 39 -14 54 -14 33 0 88 -21 104 -41 9
-12 -6 -14 -102 -16 -99 -2 -125 -6 -219 -37 -59 -19 -116 -42 -129 -51 -12
-8 -31 -15 -42 -15 -21 1 -24 -2 40 48 6 4 32 17 58 27 27 11 47 25 45 30 -2
6 -5 9 -8 9 -3 -1 -24 -5 -48 -8 -24 -3 -48 -9 -54 -12 -6 -4 -30 -11 -52 -15
l-41 -7 36 32 c20 17 60 40 88 50 61 21 62 32 2 16 -113 -30 -199 -93 -262
-191 -17 -27 -32 -49 -33 -49 -8 0 5 75 13 78 6 2 11 11 11 21 0 31 91 121
169 167 95 58 53 52 -69 -9 -65 -32 -103 -60 -162 -119 -60 -59 -78 -73 -78
-57 0 11 -4 17 -10 14 -5 -3 -10 -1 -10 4 0 6 5 11 10 11 6 0 10 6 10 13 0 22
65 91 122 131 30 20 85 47 123 61 64 22 82 24 225 21 112 -2 165 -7 191 -18z
m-5201 -68 c0 -5 7 -7 15 -4 19 8 89 -34 141 -84 57 -55 69 -105 56 -221 -6
-49 -22 -122 -35 -160 -14 -39 -22 -69 -18 -66 4 2 14 22 21 45 10 29 16 37
22 28 7 -9 8 -4 5 14 -2 15 0 29 5 30 5 2 11 26 12 53 2 28 4 53 5 57 0 4 14
6 30 5 l30 -2 -4 -95 c-2 -52 -1 -87 2 -77 2 9 8 17 13 17 4 0 3 -14 -3 -30
-8 -20 -17 -28 -26 -25 -11 4 -11 2 -2 -9 8 -9 8 -21 2 -39 -11 -29 -192 -217
-209 -217 -7 0 -12 -5 -12 -10 0 -30 -38 -49 -120 -60 -47 -7 -105 -21 -129
-31 -24 -11 -45 -19 -47 -19 -2 0 -4 16 -4 35 0 19 -2 35 -4 35 -2 0 -11 3
-20 6 -11 4 -16 0 -16 -15 0 -12 5 -18 13 -16 8 4 13 -7 14 -30 1 -19 -3 -35
-8 -35 -6 0 -21 -11 -34 -24 l-24 -24 -6 27 c-21 95 -7 526 20 625 21 80 87
216 116 243 58 52 199 104 199 73z m1850 -64 c0 -12 -14 5 -31 39 -8 16 -6 15
10 -4 12 -13 21 -28 21 -35z m1209 -76 c11 -73 23 -256 17 -249 -13 12 -46
195 -51 279 -5 88 -4 93 9 65 8 -16 19 -59 25 -95z m818 48 c-3 -7 -5 -2 -5
12 0 14 2 19 5 13 2 -7 2 -19 0 -25z m-2059 -90 c90 -163 403 -811 398 -824
-3 -7 -20 -15 -38 -19 -50 -10 -214 -55 -299 -82 l-77 -24 -50 53 c-47 49 -52
52 -69 37 -10 -9 -34 -22 -53 -29 -19 -8 -37 -16 -40 -20 -3 -3 -17 -13 -33
-23 -21 -14 -25 -22 -18 -35 5 -9 11 -30 12 -45 4 -28 4 -28 -171 -87 -96 -32
-196 -67 -222 -77 -26 -9 -49 -15 -51 -13 -17 21 -490 950 -485 954 15 12 439
146 462 146 17 0 195 50 316 89 79 25 329 90 351 90 10 1 35 -33 67 -91z
m3587 76 c51 -6 91 -21 82 -31 -3 -3 -56 1 -119 8 -62 8 -100 15 -84 17 23 3
26 6 15 14 -10 7 -4 8 21 4 19 -4 57 -9 85 -12z m-4996 -203 c62 -117 69 -135
50 -129 -6 2 -23 36 -39 76 -15 40 -32 78 -37 85 -23 29 -64 111 -50 97 9 -8
43 -67 76 -129z m5111 95 c19 -8 64 -42 100 -76 36 -34 94 -84 129 -113 37
-30 70 -65 78 -85 8 -20 17 -83 20 -141 5 -96 2 -114 -22 -191 -28 -88 -94
-227 -126 -269 -25 -32 -24 -23 6 45 14 32 24 59 22 61 -5 4 -77 -150 -77
-165 0 -26 -26 -10 -53 32 -65 103 -202 204 -355 261 -54 20 -108 42 -122 49
-14 7 -41 13 -59 15 -19 1 -37 3 -39 6 -2 2 20 34 49 72 47 61 147 249 137
258 -5 5 -65 -51 -104 -98 -17 -20 -35 -33 -39 -29 -5 4 -5 2 -2 -4 11 -19
-44 -61 -141 -107 -99 -47 -103 -47 -136 3 -18 27 -21 44 -7 36 5 -4 7 3 4 14
-4 16 0 20 21 20 18 0 25 -4 20 -11 -4 -7 -2 -10 6 -7 8 2 12 26 12 71 -1 107
-1 104 -12 87 -8 -13 -10 -13 -10 -1 0 20 48 90 85 124 68 62 158 101 315 137
134 30 238 33 300 6z m-4992 -153 c-2 -10 -14 12 -29 52 -41 111 -41 114 -3
38 19 -40 34 -80 32 -90z m3333 -41 c-36 -145 -110 -266 -224 -365 -71 -62
-168 -130 -175 -123 -2 3 56 65 130 138 153 150 186 197 223 310 37 114 71
143 46 40z m-64 21 c4 -10 -2 -23 -15 -34 -12 -9 -22 -24 -22 -33 0 -8 -4 -18
-10 -21 -8 -5 -362 -7 -418 -3 -7 1 -11 6 -9 12 2 7 55 12 148 13 165 2 247 7
256 17 3 3 0 6 -8 6 -289 9 -345 13 -358 25 -22 21 -5 24 159 28 80 1 173 4
208 5 50 2 64 -1 69 -15z m-596 -36 c-10 -9 -11 -8 -5 6 3 10 9 15 12 12 3 -3
0 -11 -7 -18z m-2515 -249 c64 -128 170 -335 235 -459 65 -125 119 -234 119
-242 0 -16 -86 -82 -172 -132 -82 -46 -53 -11 50 60 53 38 99 70 101 72 2 1
-3 11 -11 20 -9 10 -41 68 -70 128 -83 167 -349 688 -362 706 -10 14 -25 4
-116 -78 -140 -125 -334 -283 -348 -283 -23 0 -9 16 76 87 48 40 150 135 227
211 77 76 143 139 147 140 4 1 60 -103 124 -230z m2482 202 c-7 -10 -14 -17
-17 -15 -4 4 18 35 25 35 2 0 -1 -9 -8 -20z m708 -117 c-67 -190 -234 -339
-521 -463 -137 -60 -320 -123 -337 -118 -5 2 37 23 94 47 132 55 434 219 519
282 88 65 157 139 208 227 24 40 45 71 47 69 3 -2 -2 -22 -10 -44z m260 -113
c27 -25 66 -58 87 -74 51 -39 46 -49 -13 -24 -69 29 -131 86 -167 155 -50 94
-50 114 -1 48 25 -33 67 -80 94 -105z m659 130 c3 -5 1 -10 -4 -10 -6 0 -11 5
-11 10 0 6 2 10 4 10 3 0 8 -4 11 -10z m-279 -239 c19 -58 44 -121 55 -139 23
-39 23 -42 5 -42 -7 0 -24 24 -36 52 -29 67 -80 271 -79 312 1 22 4 15 10 -23
5 -30 25 -102 45 -160z m-94 -18 c37 -76 63 -110 113 -149 19 -15 19 -15 -5
-9 -65 17 -116 82 -154 197 -29 85 -34 134 -9 78 8 -19 33 -72 55 -117z
m-1312 -42 c-8 -5 -26 -11 -40 -15 -21 -5 -20 -3 5 9 32 15 60 20 35 6z m2050
-28 c194 -56 322 -159 409 -330 30 -59 26 -76 -6 -28 -53 79 -147 186 -194
221 -119 87 -263 127 -442 122 -65 -2 -117 -2 -117 -1 0 1 14 10 31 18 76 40
177 39 319 -2z m-5192 -15 c22 -22 12 -31 -28 -24 -30 5 -56 0 -107 -20 -37
-15 -74 -32 -81 -37 -28 -21 -21 2 10 32 49 48 177 78 206 49z m47 -8 c3 -6
-1 -7 -9 -4 -18 7 -21 14 -7 14 6 0 13 -4 16 -10z m5841 -58 c-10 -79 -34
-159 -67 -225 -28 -58 -74 -117 -90 -117 -4 0 -11 19 -15 43 -16 85 -13 96 47
158 31 33 72 88 90 124 19 36 36 65 38 65 2 0 1 -22 -3 -48z m-5886 -53 c-30
-16 -72 -47 -94 -67 -21 -21 -34 -28 -28 -17 17 33 64 73 112 94 67 29 72 25
10 -10z m532 -19 c30 -51 70 -70 98 -45 11 10 20 27 20 38 0 18 -2 19 -17 5
-23 -19 -77 -18 -81 2 -6 32 123 56 134 25 8 -19 -13 -80 -33 -97 -13 -10 -17
-10 -20 -1 -3 9 -10 9 -28 -3 -19 -12 -31 -13 -62 -5 -51 14 -53 14 -53 -9 0
-12 -7 -20 -17 -20 -10 0 -36 -7 -58 -16 -22 -8 -48 -17 -57 -21 -10 -3 -18
-10 -18 -15 0 -6 -9 -8 -21 -5 -12 3 -19 1 -16 -6 4 -12 -27 -47 -42 -47 -5 0
-12 6 -14 13 -4 8 -6 7 -6 -4 -1 -8 19 -30 44 -47 31 -22 47 -41 52 -62 6 -31
17 -43 42 -47 7 -1 26 -17 41 -35 15 -18 47 -58 71 -88 62 -76 189 -176 241
-191 25 -6 75 -9 121 -6 64 4 75 3 61 -7 -15 -12 -13 -14 16 -20 36 -7 53 6
43 31 -4 11 -8 12 -13 3 -4 -7 -10 -8 -13 -3 -3 5 3 14 13 21 21 13 33 3 45
-37 6 -20 4 -23 -9 -18 -9 4 -16 2 -16 -2 0 -13 -113 -49 -177 -57 -80 -10
-214 13 -266 46 -58 36 -217 86 -217 67 0 -17 14 -37 26 -37 8 0 14 -4 14 -8
0 -4 20 -18 45 -30 41 -20 60 -42 35 -42 -5 0 -10 4 -10 9 0 4 -16 7 -35 5
-28 -2 -50 8 -108 45 -40 27 -83 60 -94 74 -11 15 -22 24 -25 22 -2 -2 -18 8
-34 23 -17 15 -53 44 -80 64 -68 50 -105 93 -41 48 27 -19 51 -38 53 -42 3 -4
12 -4 21 -1 10 4 14 2 10 -4 -8 -12 37 -53 58 -53 8 0 15 -5 15 -11 0 -5 4 -7
10 -4 5 3 23 -1 39 -10 40 -20 49 -19 20 3 -36 28 -184 112 -196 112 -6 0 -15
13 -21 28 -5 16 -41 55 -78 88 -89 76 -86 71 -80 124 10 98 66 178 151 220 41
19 186 40 292 41 33 0 77 8 103 19 72 30 96 27 122 -20z m1728 -10 c-78 -62
-579 -348 -778 -446 -182 -88 -374 -174 -388 -174 -5 1 99 56 231 123 214 109
414 219 745 410 135 78 191 107 204 107 6 0 0 -9 -14 -20z m568 -12 c2 -20 -4
-31 -23 -44 -23 -15 -28 -15 -36 -3 -5 8 -9 10 -9 5 0 -11 -30 14 -30 25 0 21
42 50 68 47 21 -2 28 -9 30 -30z m-684 -18 c-5 -5 -41 -17 -79 -26 -39 -9
-107 -28 -153 -41 -45 -13 -88 -22 -95 -20 -13 5 73 32 223 71 110 28 118 30
104 16z m1296 -68 c0 -19 -142 -145 -210 -187 -71 -43 -227 -101 -252 -93 -6
2 18 14 53 27 69 25 215 119 319 206 60 51 90 66 90 47z m1555 -25 c35 -13 65
-30 202 -118 116 -74 247 -367 189 -424 -8 -9 -21 -35 -28 -58 -6 -23 -15 -44
-19 -47 -19 -15 -43 -82 -45 -130 -2 -42 -8 -59 -24 -72 -12 -10 -17 -18 -11
-18 25 0 -6 -33 -63 -65 -33 -19 -86 -57 -118 -83 -164 -137 -207 -172 -214
-172 -4 0 13 22 37 48 115 126 206 238 227 279 22 42 57 191 48 200 -2 3 -22
-7 -45 -21 -22 -14 -46 -26 -52 -26 -12 0 -185 -112 -257 -167 -51 -39 -104
-94 -97 -101 2 -2 11 3 20 12 12 12 21 13 35 6 10 -6 34 -10 53 -10 22 0 37
-6 41 -15 3 -8 1 -15 -5 -15 -6 0 -8 -9 -4 -19 4 -13 -3 -28 -20 -46 -77 -85
-137 -97 -198 -41 -20 18 -37 38 -37 44 0 6 29 48 63 94 157 205 239 344 268
451 6 23 20 57 31 75 11 18 18 35 16 38 -5 4 -101 -65 -106 -77 -2 -4 -11 -5
-21 -2 -37 10 -95 -75 -115 -168 -8 -35 -109 -185 -165 -242 -37 -38 -56 -50
-89 -54 -36 -5 -44 -2 -67 23 -16 18 -24 37 -21 52 3 22 2 22 -15 6 -27 -24
-24 -38 17 -73 27 -24 43 -31 64 -28 23 4 27 2 23 -14 -12 -45 -103 3 -139 73
-18 34 -25 19 123 255 62 101 122 203 133 229 22 50 63 205 56 211 -6 6 -57
-26 -83 -53 -16 -16 -23 -35 -23 -61 0 -27 -11 -56 -38 -98 -69 -111 -87 -135
-105 -141 -12 -4 -16 -12 -12 -24 4 -12 -1 -23 -15 -33 -11 -7 -17 -16 -14
-20 7 -7 -22 -54 -60 -94 -21 -24 -39 -33 -61 -33 -59 0 -161 72 -186 131 -9
24 -9 37 5 73 22 58 139 260 218 375 97 144 140 170 275 171 34 0 65 5 69 11
4 8 9 7 15 -2 5 -9 25 -12 61 -10 72 3 88 21 19 21 -36 0 -50 3 -45 11 10 17
258 6 309 -14z m-3490 -113 c-49 -19 -144 -55 -210 -80 -66 -25 -149 -61 -185
-80 -208 -111 -268 -125 -88 -21 82 47 167 84 308 135 107 38 202 72 210 75 8
3 24 6 35 6 11 0 -20 -16 -70 -35z m2699 -66 c-4 -7 -38 -61 -75 -119 -96
-149 -128 -218 -147 -309 l-16 -78 49 -54 c27 -29 86 -79 131 -110 70 -50 87
-68 119 -125 32 -59 36 -73 31 -112 -3 -25 -10 -49 -15 -54 -8 -8 -151 124
-151 141 0 12 -72 42 -99 42 -34 0 -122 33 -130 49 -13 25 -21 81 -13 81 5 0
16 -15 24 -34 11 -22 26 -36 44 -40 15 -4 40 -16 55 -27 15 -10 38 -19 51 -19
33 0 127 -57 138 -83 8 -21 29 -43 59 -61 9 -6 12 -1 10 20 -2 16 0 34 4 41
17 27 -101 99 -232 142 -150 49 -174 72 -187 187 -8 69 13 115 149 320 82 124
115 165 149 186 47 30 63 35 52 16z m-1530 -19 c19 -27 11 -46 -27 -66 -28
-14 -31 -14 -44 3 -18 25 -16 54 5 70 25 19 49 17 66 -7z m406 -115 c0 -7
-372 -187 -417 -202 -18 -6 -33 -10 -33 -8 0 5 284 164 315 177 29 11 113 36
128 38 4 1 7 -2 7 -5z m-2200 -73 c0 -5 -7 -12 -16 -15 -14 -5 -15 -4 -4 9 14
17 20 19 20 6z m1590 -119 c0 -27 -20 -42 -57 -42 -37 0 -44 18 -17 44 22 23
74 21 74 -2z m376 -27 c-45 -40 -105 -69 -198 -93 -20 -6 -39 -8 -42 -5 -6 7
255 142 274 142 8 0 -7 -19 -34 -44z m-1166 -45 c32 -62 52 -166 53 -270 1
-87 -17 -215 -32 -224 -3 -2 -7 69 -7 157 -1 147 -9 216 -40 350 -9 39 2 33
26 -13z m-1391 -78 c-13 -6 -68 28 -79 47 -7 15 1 12 38 -12 27 -18 45 -33 41
-35z m1836 7 c64 -29 163 -56 230 -64 30 -4 55 -10 55 -14 -1 -15 -98 -146
-123 -165 -27 -20 -28 -20 -113 -3 -122 25 -208 59 -212 83 -2 11 16 57 38
102 46 92 51 94 125 61z m-1640 -17 c-3 -3 -11 0 -18 7 -9 10 -8 11 6 5 10 -3
15 -9 12 -12z m120 -32 c16 -7 13 -9 -17 -9 -20 -1 -40 4 -43 9 -7 12 32 12
60 0z m998 -147 c44 -94 58 -182 47 -286 -12 -103 -25 -150 -67 -232 -80 -158
-194 -280 -318 -341 -61 -29 -85 -35 -188 -44 -167 -14 -239 3 -362 87 -48 34
-73 54 -47 39 18 -11 15 4 -13 53 -28 48 -27 69 1 24 32 -51 88 -104 136 -129
55 -28 156 -54 211 -54 38 0 52 15 20 22 -10 2 16 4 57 3 78 0 147 22 216 69
57 39 194 214 208 266 4 14 11 34 16 45 5 11 16 43 26 70 9 28 26 69 36 93 25
54 35 188 19 261 -6 30 -23 76 -37 104 -13 28 -19 45 -11 39 8 -7 30 -47 50
-89z m3101 72 c-9 -14 -18 -25 -21 -25 -5 0 5 18 20 38 17 22 18 13 1 -13z
m-3384 -43 c-19 -9 -24 -32 -7 -32 8 0 7 -4 -3 -10 -8 -5 -10 -10 -5 -10 6 0
3 -4 -4 -9 -20 -13 -50 4 -47 25 3 18 42 43 66 43 13 0 13 -1 0 -7z m3329 -42
c-13 -22 -32 -48 -42 -58 -11 -9 -3 9 18 41 44 66 57 75 24 17z m-3259 0 c0
-22 22 -23 31 -1 8 21 52 -42 79 -114 17 -46 22 -80 21 -149 -1 -116 -22 -201
-73 -298 -44 -85 -84 -124 -139 -135 l-33 -6 36 43 c21 23 35 46 32 51 -2 4 5
16 16 27 14 13 22 34 24 68 2 42 6 49 24 52 14 2 22 10 22 23 0 13 4 18 12 13
6 -4 8 -3 5 3 -4 6 -1 24 6 42 7 21 8 34 2 39 -12 8 -16 42 -5 42 15 0 21 64
7 75 -8 5 -16 17 -20 25 -4 12 -6 11 -6 -2 -1 -12 -9 -18 -26 -18 -22 0 -25 4
-25 40 0 33 -3 40 -20 40 -17 0 -20 7 -20 39 0 32 4 40 23 45 17 5 19 8 8 15
-9 6 -10 11 -2 15 18 12 13 36 -6 30 -15 -5 -16 -4 -3 5 22 16 30 13 30 -9z
m3940 1 c0 -10 -6 -24 -14 -30 -11 -10 -14 -9 -12 1 1 7 5 19 9 25 6 9 3 11
-9 6 -12 -4 -15 -3 -10 5 11 19 36 14 36 -7z m-4085 -21 c-1 -19 2 -27 7 -22
10 10 48 4 48 -7 0 -4 -16 -8 -36 -9 -31 -2 -83 -32 -56 -32 5 0 10 -22 11
-50 1 -48 -1 -50 -27 -51 l-27 -2 28 -4 c31 -5 37 -23 7 -23 -13 0 -20 -7 -20
-19 0 -13 -10 -20 -32 -25 -24 -5 -29 -9 -19 -15 9 -6 13 -25 11 -57 -1 -27
-2 -57 -1 -66 0 -11 -8 -18 -20 -18 -12 0 -19 -7 -19 -20 0 -11 -7 -20 -15
-20 -8 0 -14 -3 -14 -7 3 -21 -2 -34 -11 -28 -6 4 -8 10 -6 14 3 3 -3 7 -13 7
-13 0 -17 -6 -13 -21 5 -19 4 -19 -15 -3 -15 14 -22 15 -32 5 -10 -9 -11 -8
-6 6 4 10 2 17 -4 17 -18 0 -13 41 7 56 10 8 12 13 5 14 -28 0 14 132 61 189
6 7 11 19 11 25 0 23 51 86 69 86 12 0 16 5 12 15 -3 8 0 14 6 12 7 -1 12 3
13 10 0 6 4 15 9 20 5 4 6 3 3 -3 -4 -7 3 -11 18 -11 21 0 24 3 21 23 -3 15 1
27 12 34 26 15 29 12 27 -20z m-516 -239 c0 -52 -2 -92 -5 -89 -11 12 -25 223
-17 268 l7 45 7 -65 c4 -36 7 -107 8 -159z m-207 154 c-18 -8 -59 -35 -92 -60
-65 -50 -76 -55 -60 -24 16 28 130 99 160 99 23 -1 23 -2 -8 -15z m-32 -62
c-18 -21 -64 -69 -101 -107 -38 -38 -69 -73 -69 -78 0 -4 -6 -8 -14 -8 -8 0
-21 -8 -28 -18 -14 -20 -46 -37 -78 -41 -15 -2 -78 -60 -102 -95 -20 -29 -20
-30 -2 -13 12 9 24 15 27 12 4 -3 5 -2 2 2 -6 7 64 83 77 83 4 0 8 -7 8 -15 0
-8 -3 -15 -7 -15 -5 0 -30 -34 -58 -75 -31 -47 -52 -70 -57 -63 -4 8 -11 2
-18 -17 -21 -54 -50 -177 -50 -212 0 -18 -5 -33 -11 -33 -8 0 -10 -19 -7 -57
l5 -58 -24 52 -24 52 16 98 c29 175 110 309 239 395 33 22 102 80 151 128 86
83 130 118 149 119 4 1 -7 -16 -24 -36z m27 -434 c11 -24 41 -71 68 -103 45
-56 46 -58 15 -40 -86 50 -140 191 -123 324 7 54 8 54 14 -41 4 -61 14 -112
26 -140z m488 101 c3 -5 1 -10 -4 -10 -6 0 -11 5 -11 10 0 6 2 10 4 10 3 0 8
-4 11 -10z m44 -28 c-5 -2 -7 -7 -4 -12 3 -4 -4 -6 -15 -3 -18 5 -19 6 -2 28
15 20 18 21 23 7 4 -10 2 -19 -2 -20z m-1514 -414 c39 -17 32 -38 -10 -31 -48
8 -96 -26 -180 -124 -44 -52 -96 -98 -153 -137 -106 -71 -132 -94 -132 -117 0
-10 -5 -21 -12 -25 -7 -4 -8 -3 -4 4 16 27 -15 9 -38 -20 -35 -47 -66 -133
-73 -206 -4 -42 -9 -60 -16 -53 -30 30 9 186 68 276 50 75 95 116 182 165 94
52 125 79 168 145 76 116 135 153 200 123z m-390 -369 c11 -17 -1 -21 -15 -4
-8 9 -8 15 -2 15 6 0 14 -5 17 -11z"/>
<path d="M6535 9096 c-21 -32 -13 -59 16 -54 30 4 47 33 33 55 -17 27 -31 26
-49 -1z"/>
<path d="M6015 8444 c-70 -8 -145 -25 -145 -34 0 -9 50 -27 89 -32 26 -3 42
-28 18 -28 -9 0 -13 -9 -11 -26 2 -23 -1 -25 -22 -21 -13 2 -24 3 -24 1 0 -7
45 -27 61 -28 10 -1 32 -21 49 -44 41 -57 115 -92 185 -87 38 2 78 17 164 61
162 84 164 85 184 102 19 16 23 42 7 42 -5 0 -10 -6 -10 -13 0 -7 -10 -19 -22
-26 -27 -17 -71 -24 -63 -10 4 5 17 9 31 9 41 0 18 18 -51 39 -35 11 -87 32
-117 48 -73 38 -76 39 -53 13 19 -21 16 -21 -29 5 -40 24 -62 29 -125 31 -42
1 -94 0 -116 -2z m87 -93 c-5 -38 30 -115 62 -136 15 -10 41 -21 59 -25 l32
-7 -28 -13 c-25 -12 -33 -12 -63 5 -41 22 -94 98 -94 134 0 22 24 71 34 71 1
0 1 -13 -2 -29z m72 -33 c3 -18 16 -42 28 -55 21 -23 21 -23 1 -23 -29 0 -45
23 -51 77 -6 52 11 54 22 1z m117 -55 c-12 -20 -14 -14 -5 12 4 9 9 14 11 11
3 -2 0 -13 -6 -23z"/>
<path d="M5826 8395 c10 -8 26 -15 35 -15 8 0 20 -5 27 -12 7 -7 12 -8 12 -4
0 15 -45 45 -69 46 -24 0 -24 0 -5 -15z"/>
<path d="M6456 8224 c-26 -19 -44 -34 -39 -34 11 0 93 57 93 65 0 7 2 8 -54
-31z"/>
<path d="M6355 8170 c-3 -6 1 -7 9 -4 18 7 21 14 7 14 -6 0 -13 -4 -16 -10z"/>
<path d="M5355 8034 c-50 -30 -46 -30 35 1 50 18 58 24 35 24 -16 -1 -48 -12
-70 -25z"/>
<path d="M5760 7746 c-25 -7 -63 -22 -85 -35 -22 -12 -31 -19 -20 -16 72 24
176 45 219 46 41 1 46 3 26 9 -37 12 -89 10 -140 -4z"/>
<path d="M5910 7700 c0 -8 79 -30 107 -30 17 1 17 1 1 11 -23 13 -108 28 -108
19z"/>
<path d="M5965 7587 c-40 -14 -156 -73 -122 -63 66 20 225 46 296 47 62 2 78
5 60 11 -43 16 -191 19 -234 5z"/>
<path d="M6688 8229 c-23 -28 -67 -77 -95 -108 -29 -31 -53 -60 -53 -65 0 -15
56 36 110 99 14 17 57 47 95 67 38 20 71 42 73 47 2 7 -14 11 -41 11 -42 0
-48 -4 -89 -51z"/>
<path d="M6618 8216 c-10 -21 -13 -38 -7 -47 7 -11 9 -10 9 4 0 10 7 31 15 47
9 17 12 30 8 30 -5 0 -15 -15 -25 -34z"/>
<path d="M6603 8013 c9 -2 23 -2 30 0 6 3 -1 5 -18 5 -16 0 -22 -2 -12 -5z"/>
<path d="M4915 7080 c-3 -5 -1 -10 4 -10 6 0 11 5 11 10 0 6 -2 10 -4 10 -3 0
-8 -4 -11 -10z"/>
<path d="M4355 6890 c3 -5 8 -10 11 -10 2 0 4 5 4 10 0 6 -5 10 -11 10 -5 0
-7 -4 -4 -10z"/>
<path d="M4509 6863 c11 -23 42 -25 49 -3 3 9 0 10 -14 2 -14 -8 -21 -6 -32 6
-11 15 -12 14 -3 -5z"/>
<path d="M3715 6806 c29 -25 55 -34 55 -18 0 4 -12 13 -28 20 -50 25 -57 24
-27 -2z"/>
<path d="M3553 6759 c-18 -5 -35 -14 -38 -19 -3 -5 13 -2 37 6 30 11 63 14
108 11 40 -4 57 -2 45 3 -26 11 -112 11 -152 -1z"/>
<path d="M7560 6469 c0 -5 5 -7 10 -4 6 3 10 8 10 11 0 2 -4 4 -10 4 -5 0 -10
-5 -10 -11z"/>
<path d="M3226 6275 c20 -56 15 -94 -28 -220 -25 -72 -54 -154 -66 -182 -12
-29 -20 -53 -17 -53 12 0 79 151 105 236 42 134 43 153 20 199 -11 22 -17 31
-14 20z"/>
<path d="M3296 5945 c-9 -26 -7 -32 5 -12 6 10 9 21 6 23 -2 3 -7 -2 -11 -11z"/>
<path d="M3153 5792 c-23 -42 -46 -90 -52 -107 -11 -28 -10 -29 5 -10 21 28
98 184 93 189 -3 3 -23 -30 -46 -72z"/>
<path d="M4290 6154 c-69 -23 -124 -46 -123 -51 1 -4 43 -97 93 -205 49 -108
90 -204 90 -213 0 -23 23 -18 67 14 40 29 60 70 47 94 -4 7 4 2 18 -10 15 -15
37 -23 59 -23 45 0 79 10 79 22 0 16 -172 375 -190 395 -14 18 -20 17 -140
-23z"/>
<path d="M8786 5463 c-6 -14 -5 -15 5 -6 7 7 10 15 7 18 -3 3 -9 -2 -12 -12z"/>
<path d="M2939 5243 c-13 -15 -12 -15 9 -4 23 12 28 21 13 21 -5 0 -15 -7 -22
-17z"/>
<path d="M3300 4720 c0 -5 6 -10 14 -10 8 0 18 5 21 10 3 6 -3 10 -14 10 -12
0 -21 -4 -21 -10z"/>
<path d="M7770 4715 c-34 -36 -21 -39 19 -4 20 17 28 29 19 29 -8 0 -25 -11
-38 -25z"/>
<path d="M7405 4640 c-3 -5 -1 -10 4 -10 6 0 11 5 11 10 0 6 -2 10 -4 10 -3 0
-8 -4 -11 -10z"/>
<path d="M7672 4188 c-19 -19 -14 -36 17 -51 27 -14 29 -13 26 4 -4 18 -23 59
-28 59 -2 0 -8 -5 -15 -12z"/>
<path d="M5077 4525 c-10 -14 -24 -43 -32 -65 -14 -40 -14 -41 13 -51 52 -20
136 -39 173 -39 32 0 42 7 83 54 25 30 46 59 46 65 0 6 -13 11 -28 11 -15 0
-71 11 -123 25 -51 13 -98 25 -104 24 -5 0 -18 -11 -28 -24z m161 -42 c41 -7
49 -25 28 -58 -18 -28 -59 -32 -111 -12 -60 24 -68 32 -61 62 7 27 8 27 59 21
29 -4 67 -9 85 -13z"/>
<path d="M4450 4357 c0 -12 -4 -16 -12 -10 -14 8 -38 13 -38 8 0 -2 3 -11 6
-20 5 -13 9 -14 15 -3 6 8 12 9 17 3 22 -30 42 -7 22 25 -8 13 -10 12 -10 -3z"/>
<path d="M4185 4260 c3 -5 8 -10 11 -10 2 0 4 5 4 10 0 6 -5 10 -11 10 -5 0
-7 -4 -4 -10z"/>
<path d="M4106 4223 c-6 -14 -5 -15 5 -6 7 7 10 15 7 18 -3 3 -9 -2 -12 -12z"/>
<path d="M4030 3940 c0 -5 5 -10 10 -10 6 0 10 5 10 10 0 6 -4 10 -10 10 -5 0
-10 -4 -10 -10z"/>
<path d="M3066 3788 c-26 -73 -27 -95 -3 -43 13 28 22 53 20 58 -2 4 1 7 6 7
6 0 11 5 11 10 0 25 -20 6 -34 -32z"/>
<path d="M9593 9390 c-24 -63 -79 -191 -114 -265 -26 -57 -117 -197 -195 -300
-85 -114 -205 -244 -316 -342 -117 -105 -345 -270 -431 -314 -32 -16 -86 -47
-120 -68 -35 -21 -86 -49 -115 -63 l-52 -25 21 31 c11 17 30 51 41 76 28 60
88 233 83 238 -2 3 -39 -28 -82 -67 -156 -144 -298 -237 -486 -317 l-78 -33
25 34 c14 18 31 46 36 60 10 26 9 27 -17 22 -103 -20 -197 -60 -280 -117 -49
-35 -77 -59 -63 -56 14 3 55 13 91 21 36 8 84 21 107 29 35 13 42 13 42 1 0
-42 -145 -105 -244 -105 -28 0 -56 -4 -61 -8 -6 -4 -23 -32 -39 -62 -16 -30
-48 -79 -70 -109 -50 -67 -158 -143 -195 -139 -23 3 -27 9 -34 53 -5 28 -13
67 -18 88 l-10 38 -39 -31 -38 -30 19 -68 c10 -37 22 -103 26 -146 l8 -80 103
-43 c57 -23 169 -66 250 -93 199 -69 325 -141 385 -220 125 -164 132 -170 297
-251 114 -57 173 -80 223 -88 75 -13 115 -30 221 -99 39 -25 82 -52 96 -61 21
-14 46 -15 170 -9 80 4 182 8 228 11 45 2 79 0 75 -4 -25 -22 -393 -42 -426
-23 -9 6 -9 5 0 -7 6 -8 41 -32 77 -54 36 -22 66 -47 66 -55 0 -8 7 -23 15
-33 13 -18 16 -18 71 -2 32 9 93 35 137 56 82 42 310 189 303 196 -2 2 -47 0
-100 -6 -104 -12 -319 -14 -378 -5 -45 8 -49 21 -10 30 232 51 378 125 575
292 76 65 271 271 264 278 -2 2 -61 -17 -132 -43 -145 -50 -465 -145 -553
-164 -31 -6 -65 -15 -74 -20 -10 -6 -18 -8 -18 -6 0 10 142 98 220 137 264
132 456 308 605 554 47 80 107 207 99 215 -2 2 -35 -19 -74 -48 -169 -123
-493 -287 -605 -306 l-40 -7 34 24 c79 55 271 221 337 290 193 204 304 457
329 746 4 45 4 82 1 82 -3 0 -15 -19 -27 -42 -90 -176 -283 -365 -527 -516
-46 -29 -86 -52 -88 -52 -3 0 21 22 53 48 176 147 341 431 420 720 23 87 26
119 30 317 2 121 0 254 -4 295 l-9 75 -21 -55z m-103 -441 c-28 -63 -65 -133
-83 -156 -320 -418 -446 -531 -842 -751 -86 -48 -318 -142 -350 -142 -23 0 24
29 138 84 233 113 601 369 763 531 135 134 300 351 390 512 47 85 39 44 -16
-78z m162 -663 c-57 -127 -434 -409 -626 -467 -33 -10 -62 -17 -64 -15 -3 4
101 67 165 100 82 41 387 283 487 385 28 28 52 49 54 47 2 -3 -5 -25 -16 -50z
m-1438 -188 c-20 -35 -54 -87 -77 -117 -23 -29 -48 -64 -55 -77 -8 -15 -25
-25 -50 -29 -54 -9 -130 -34 -182 -60 -48 -23 -139 -49 -147 -41 -3 2 19 20
49 40 51 35 48 47 -9 25 l-28 -10 24 24 c12 14 51 35 84 48 145 52 280 127
352 193 39 36 71 65 72 66 1 0 -14 -28 -33 -62z m1375 -506 c-30 -32 -56 -58
-59 -58 -3 0 -36 -18 -75 -40 -222 -129 -485 -229 -485 -184 0 11 129 78 211
110 81 33 329 156 389 194 30 20 59 36 64 36 5 0 -15 -26 -45 -58z m-1265 38
c-12 -12 -153 -65 -229 -87 -68 -19 -386 -52 -374 -39 4 4 35 11 70 16 35 6
80 14 99 19 19 5 71 17 115 27 44 9 127 29 185 44 117 31 150 36 134 20z m301
-356 c-21 -14 -45 -32 -54 -41 -30 -31 -276 -132 -288 -119 -20 20 95 92 202
126 22 7 62 24 90 36 69 33 99 32 50 -2z m-560 -26 c-65 -55 -116 -79 -206
-98 -48 -10 -103 -26 -124 -34 -43 -18 -59 -20 -50 -6 3 5 24 15 45 21 22 7
37 15 35 19 -10 16 26 32 126 56 57 15 115 33 128 41 20 13 59 28 81 32 2 1
-13 -14 -35 -31z m1335 -263 c0 -27 -301 -124 -486 -157 -100 -17 -139 -9 -79
18 22 9 74 23 115 30 63 12 288 73 380 104 28 9 70 13 70 5z m-1035 -135 c3
-5 -1 -10 -9 -10 -9 0 -16 5 -16 10 0 6 4 10 9 10 6 0 13 -4 16 -10z"/>
<path d="M2132 8714 c8 -7 98 -34 98 -29 0 7 -71 35 -88 35 -8 0 -13 -3 -10
-6z"/>
<path d="M8470 8516 c-100 -38 -705 -335 -697 -343 16 -15 466 193 672 311 81
47 87 55 25 32z"/>
<path d="M7819 8003 c-13 -16 -12 -17 4 -4 9 7 17 15 17 17 0 8 -8 3 -21 -13z"/>
<path d="M7445 7997 c-46 -11 -50 -14 -53 -45 -2 -23 1 -32 12 -32 19 0 111
42 151 70 l30 20 -45 -1 c-25 -1 -67 -6 -95 -12z"/>
<path d="M2054 5824 c-21 -14 -56 -42 -79 -60 -234 -198 -414 -330 -720 -529
-51 -33 -114 -76 -141 -96 -27 -20 -100 -66 -161 -103 -62 -38 -113 -70 -113
-72 0 -5 192 96 305 161 50 28 135 76 190 105 55 29 132 74 170 100 39 26 106
66 150 90 44 24 92 51 106 61 41 29 254 146 337 187 92 44 192 104 192 114 0
9 -67 28 -100 28 -14 0 -33 9 -43 20 -23 27 -47 25 -93 -6z"/>
<path d="M6970 5536 c-25 -27 -89 -86 -142 -130 -60 -50 -129 -122 -181 -186
-113 -141 -219 -237 -420 -381 -5 -4 -5 -15 2 -25 6 -11 11 -14 11 -9 0 15 41
17 57 3 7 -6 13 -18 13 -28 0 -9 11 -22 25 -28 20 -9 24 -17 20 -34 -4 -16 0
-27 15 -36 20 -12 20 -11 10 8 -7 13 -7 20 0 20 5 0 10 -5 10 -11 0 -6 9 -8
21 -4 14 5 19 3 15 -3 -12 -20 61 1 260 75 74 27 96 45 124 99 13 27 27 51 31
54 3 3 29 42 58 87 60 94 106 135 211 188 86 43 258 144 265 156 8 12 -64 66
-114 84 -65 25 -170 84 -211 120 l-35 31 -45 -50z"/>
<path d="M2473 5091 c-28 -16 -78 -48 -110 -73 -32 -24 -83 -60 -113 -81 -30
-20 -71 -50 -90 -67 -51 -44 -324 -225 -475 -314 -71 -42 -146 -91 -165 -108
l-35 -30 43 22 c24 12 73 39 108 60 35 22 96 56 136 76 81 41 264 153 320 196
21 16 84 58 140 92 301 184 318 197 318 227 0 36 -11 36 -77 0z"/>
<path d="M2482 4945 c-40 -25 -94 -62 -120 -83 -39 -32 -113 -82 -250 -167 -9
-5 -79 -55 -156 -110 -140 -100 -248 -170 -388 -253 -40 -24 -122 -73 -183
-109 -161 -96 -282 -165 -352 -202 -60 -32 -107 -71 -86 -71 29 0 105 36 182
87 47 31 154 88 236 126 83 38 157 75 165 82 8 7 46 28 83 45 52 24 86 32 140
35 79 3 100 10 242 75 22 10 65 28 95 40 30 12 89 41 130 64 41 24 113 63 160
86 47 23 150 85 229 138 l145 96 -30 20 c-16 11 -56 49 -90 83 -33 35 -64 63
-70 62 -5 0 -42 -20 -82 -44z"/>
<path d="M2720 4738 c-135 -87 -238 -149 -320 -194 -47 -26 -114 -63 -150 -84
-36 -21 -110 -61 -165 -90 -92 -48 -160 -85 -435 -235 -52 -28 -108 -57 -125
-65 -16 -8 -52 -29 -80 -46 -27 -18 -73 -46 -102 -63 -51 -29 -233 -160 -233
-167 0 -13 270 117 317 153 18 14 90 48 160 77 70 28 151 64 178 79 28 15 113
56 190 91 365 166 457 210 711 347 85 46 213 138 214 153 0 11 -75 86 -86 86
-5 0 -38 -19 -74 -42z"/>
<path d="M2853 4601 c-34 -16 -115 -64 -180 -107 -125 -81 -302 -177 -468
-251 -55 -24 -210 -99 -345 -166 -359 -179 -497 -240 -701 -311 -101 -36 -218
-76 -259 -91 -41 -15 -82 -29 -90 -32 -11 -4 -8 -8 10 -15 23 -9 19 -13 -67
-54 -130 -62 -129 -62 52 -17 157 39 258 94 150 81 -18 -2 -31 0 -29 4 3 4 14
8 25 8 10 0 19 4 19 9 0 12 91 33 127 30 15 -2 37 2 48 8 11 6 56 22 100 36
233 75 362 125 516 203 94 47 223 105 288 130 64 25 131 54 149 65 18 10 79
39 136 64 56 24 174 80 261 123 88 44 203 100 255 126 52 25 106 55 120 65
l24 19 -29 48 c-17 26 -34 49 -40 51 -5 2 -38 -10 -72 -26z"/>
<path d="M2880 4376 c-80 -41 -185 -97 -235 -125 -49 -28 -144 -77 -210 -108
-66 -32 -205 -102 -310 -155 -238 -123 -747 -374 -799 -396 -21 -8 -62 -28
-90 -43 l-51 -28 40 5 c54 8 186 51 262 85 34 16 104 40 155 55 51 14 152 53
223 86 72 32 218 93 325 134 107 41 238 93 290 115 52 23 158 68 236 100 190
79 480 224 488 244 3 9 4 21 1 25 -7 12 -150 80 -167 80 -7 0 -78 -34 -158
-74z"/>
<path d="M2391 3897 c-30 -11 -49 -23 -44 -24 6 -2 37 7 70 21 70 31 50 33
-26 3z"/>
<path d="M9459 3645 c-7 -6 -286 -43 -504 -66 -104 -10 -251 -28 -325 -39 -74
-11 -232 -31 -350 -45 -118 -14 -260 -32 -315 -40 -55 -8 -174 -22 -265 -30
-91 -9 -239 -28 -329 -43 l-164 -28 -12 -45 c-6 -25 -21 -62 -33 -83 -28 -48
-28 -60 2 -52 14 3 141 13 283 21 142 8 303 19 358 25 55 5 129 12 165 15 36
3 83 8 105 10 46 6 273 22 420 31 55 3 222 19 370 34 149 16 306 32 350 36 87
7 115 17 115 39 0 26 90 189 125 228 18 20 28 37 21 37 -7 0 -15 -2 -17 -5z"/>
<path d="M7005 3543 c-38 -4 -43 -9 -98 -91 -33 -48 -92 -127 -133 -177 -40
-49 -74 -93 -74 -97 0 -5 18 -8 40 -8 34 0 42 4 55 30 20 40 43 50 109 50 56
0 56 0 56 -30 0 -28 2 -30 39 -30 l38 0 6 78 c16 196 19 282 11 280 -5 -1 -27
-3 -49 -5z m-35 -168 l0 -55 -41 0 c-22 0 -39 3 -37 8 5 11 72 102 75 102 2 0
3 -25 3 -55z"/>
<path d="M6720 3506 c-5 -12 -24 -61 -43 -110 -19 -48 -37 -84 -39 -80 -3 5
-8 27 -12 49 -4 22 -14 62 -22 88 -16 48 -16 48 -55 45 -39 -3 -40 -4 -75 -83
-44 -100 -89 -214 -97 -247 -6 -23 -4 -24 28 -24 33 1 36 4 51 51 43 128 84
189 84 123 0 -11 7 -51 17 -89 15 -64 18 -69 43 -69 14 0 33 6 42 13 9 6 42
73 73 147 32 74 63 149 71 166 l13 32 -35 4 c-29 3 -37 0 -44 -16z"/>
<path d="M6279 3483 c-33 -4 -44 -14 -134 -136 -54 -73 -119 -153 -144 -179
l-45 -48 50 0 c48 0 51 2 67 35 l17 35 76 0 75 0 -3 -27 c-3 -27 -1 -28 36
-26 22 2 40 4 41 5 7 9 15 348 8 346 -4 -1 -24 -3 -44 -5z m-33 -129 c-3 -9
-6 -31 -6 -49 0 -31 -2 -33 -40 -37 -22 -2 -40 -1 -40 2 0 3 16 26 35 53 34
45 64 64 51 31z"/>
<path d="M6000 3463 c-8 -2 -26 -28 -39 -58 -29 -68 -34 -72 -99 -81 -58 -7
-65 2 -38 54 7 15 17 37 20 50 7 20 4 22 -29 22 -25 0 -37 -5 -42 -17 -3 -10
-35 -85 -71 -168 -35 -82 -66 -156 -69 -163 -4 -9 6 -11 38 -8 42 4 42 4 68
69 14 36 29 69 33 73 4 4 35 9 68 11 l61 5 -24 -48 c-13 -27 -28 -59 -32 -72
-6 -22 -5 -23 35 -20 l41 3 35 85 c52 125 104 258 104 265 0 6 -37 5 -60 -2z"/>
<path d="M5482 3383 c-17 -27 -68 -93 -114 -148 -46 -55 -96 -117 -112 -139
l-29 -39 49 8 c27 4 51 11 53 17 13 36 49 56 108 62 54 5 63 3 68 -13 3 -10 3
-25 -1 -34 -5 -13 1 -16 34 -14 l39 1 12 146 c17 214 19 200 -32 200 -41 0
-46 -3 -75 -47z m32 -110 c-9 -63 -9 -63 -55 -63 l-41 0 41 46 c23 26 41 51
41 55 0 5 5 9 11 9 7 0 8 -16 3 -47z"/>
<path d="M5255 3304 c-85 -127 -94 -109 -39 79 4 14 -1 17 -29 17 -32 0 -39
-6 -85 -72 -27 -40 -66 -91 -85 -113 l-36 -40 23 65 c13 36 27 84 31 108 6 40
6 42 -18 42 -14 0 -32 3 -41 6 -12 5 -16 0 -16 -19 0 -14 -13 -81 -30 -149
-16 -67 -30 -139 -30 -160 0 -34 3 -38 25 -38 31 0 59 29 120 121 24 37 49 70
54 73 5 3 1 -27 -10 -67 -10 -39 -19 -82 -19 -95 0 -21 3 -22 38 -16 20 4 38
7 38 8 2 1 204 283 232 324 l23 32 -38 0 c-38 0 -40 -2 -108 -106z"/>
<path d="M4568 3336 c-116 -8 -127 -10 -132 -30 -12 -43 -8 -49 29 -42 29 6
35 4 35 -11 -1 -23 -39 -131 -74 -207 l-27 -58 38 7 c21 4 39 10 41 13 2 4 27
66 55 137 l53 130 53 3 c53 3 66 13 59 49 -3 17 -11 17 -130 9z"/>
<path d="M4144 3298 c-6 -22 -84 -196 -125 -282 -25 -53 -25 -56 16 -56 32 0
37 4 65 60 17 33 32 60 33 60 2 0 30 5 63 11 110 20 184 84 184 161 0 57 -21
68 -133 68 -90 0 -96 -1 -103 -22z m144 -71 c5 -27 -35 -66 -75 -73 -19 -4
-36 -4 -39 -1 -6 6 16 57 35 80 20 24 74 19 79 -6z"/>
<path d="M3928 3232 c-51 -3 -67 -22 -19 -22 16 0 31 -6 35 -15 8 -23 23 -18
30 11 4 15 6 27 4 28 -2 0 -24 0 -50 -2z"/>
<path d="M4622 3083 c-12 -10 -24 -30 -28 -45 -6 -26 -4 -28 23 -28 43 0 90
63 61 82 -20 12 -34 10 -56 -9z"/>
<path d="M8378 3042 c-46 -27 -108 -94 -108 -116 0 -7 -9 -30 -20 -51 -12 -22
-25 -57 -30 -77 -6 -21 -15 -57 -21 -80 -15 -58 -12 -241 6 -303 7 -27 18 -68
24 -91 18 -68 82 -156 145 -198 31 -20 65 -39 75 -41 11 -2 30 -9 42 -16 28
-15 149 -5 189 16 54 28 123 99 146 151 35 80 58 164 60 219 4 133 3 224 -3
265 -12 89 -93 243 -163 311 -31 31 -85 44 -127 31 -27 -8 -50 -9 -74 -2 -55
16 -91 11 -141 -18z m181 -106 c6 -7 31 -21 56 -30 40 -16 48 -25 81 -88 58
-115 67 -195 40 -369 -26 -176 -103 -272 -203 -253 -83 15 -187 175 -197 302
-7 83 9 234 28 274 9 17 16 36 16 42 0 6 26 39 58 74 60 64 96 79 121 48z"/>
<path d="M7755 2986 c-88 -42 -112 -67 -203 -211 -26 -42 -41 -86 -62 -180
-12 -52 -13 -172 -1 -179 4 -3 11 -29 14 -58 8 -74 60 -181 120 -250 29 -31
57 -58 62 -58 6 0 28 -10 50 -21 35 -19 50 -21 125 -16 107 7 114 9 180 45
l55 29 0 141 c0 99 4 145 13 153 19 20 14 66 -10 104 -27 41 -58 52 -103 36
-39 -14 -102 -14 -110 -1 -3 6 -24 10 -46 10 -34 0 -42 -5 -59 -32 -28 -46
-25 -72 11 -102 33 -28 52 -31 112 -17 54 13 77 -11 77 -78 0 -59 -11 -92 -42
-123 -35 -35 -120 -32 -183 7 -86 54 -111 99 -129 235 -2 14 -6 41 -10 60 -8
43 33 191 62 223 10 12 30 41 43 65 25 46 116 112 154 112 11 0 43 -16 72 -36
67 -46 122 -55 152 -25 51 51 -15 154 -120 185 -85 26 -144 21 -224 -18z"/>
<path d="M3368 2923 c7 -3 16 -2 19 1 4 3 -2 6 -13 5 -11 0 -14 -3 -6 -6z"/>
<path d="M6882 2914 c-13 -9 -14 -27 -8 -105 16 -200 22 -488 12 -584 -19
-177 -19 -210 -1 -245 22 -43 32 -50 70 -50 29 0 72 22 87 44 7 10 2 113 -7
176 -4 19 -7 73 -8 120 l-2 85 47 3 c42 3 51 -1 74 -25 15 -15 33 -38 41 -49
21 -33 53 -154 53 -204 0 -25 8 -67 19 -94 15 -40 25 -52 54 -64 33 -13 40
-12 69 5 45 26 49 77 14 158 -15 32 -26 67 -26 78 0 52 -67 201 -107 239 -27
25 -29 38 -6 38 34 0 126 86 149 140 12 28 12 71 0 105 -14 38 -51 110 -58
113 -5 2 -8 10 -8 17 0 21 -80 84 -124 98 -52 15 -313 16 -334 1z m310 -148
c37 -24 57 -59 64 -110 6 -40 3 -47 -32 -85 -52 -59 -81 -72 -143 -64 -37 4
-51 10 -52 22 0 9 -2 62 -5 118 -5 98 -4 104 18 126 21 21 30 23 74 17 27 -3
61 -14 76 -24z"/>
<path d="M6351 2873 c-5 -11 -8 -29 -5 -40 3 -12 -4 -59 -16 -105 -13 -45 -28
-112 -35 -148 -28 -146 -44 -208 -63 -251 -11 -24 -27 -72 -35 -106 -9 -34
-22 -75 -30 -90 -73 -137 -81 -173 -46 -217 24 -30 53 -33 102 -10 31 15 35
22 45 78 19 99 40 161 66 189 23 25 32 27 98 27 104 -1 149 -23 166 -82 7 -24
12 -72 11 -106 -2 -54 1 -64 22 -82 13 -11 34 -23 47 -26 30 -8 88 3 107 22
24 24 19 84 -9 113 -13 15 -38 70 -56 126 -18 55 -38 114 -45 130 -20 48 -43
126 -55 190 -7 33 -23 88 -36 122 -12 35 -24 89 -25 120 -2 62 -28 126 -57
142 -10 5 -45 13 -79 16 -54 7 -62 5 -72 -12z m119 -303 c5 -30 16 -71 24 -90
25 -65 36 -106 36 -138 l0 -32 -69 0 c-91 0 -95 6 -75 106 21 106 57 225 66
216 4 -4 12 -32 18 -62z"/>
<path d="M5778 2841 c-26 -10 -62 -31 -79 -45 -17 -14 -34 -26 -37 -26 -4 0
-12 -8 -17 -18 -6 -10 -29 -46 -51 -80 -72 -107 -119 -355 -93 -492 25 -129
39 -162 98 -221 31 -31 71 -64 88 -73 78 -40 235 -54 306 -27 48 19 49 110 1
145 -24 17 -31 17 -80 6 -65 -16 -134 -8 -181 21 -37 23 -83 109 -89 164 -11
109 -10 138 3 209 20 110 47 161 120 233 71 69 114 85 167 63 47 -19 73 -23
101 -16 25 6 26 10 23 64 -3 57 -3 57 -48 79 -67 32 -172 38 -232 14z"/>
<path d="M5045 2786 c-88 -42 -112 -67 -203 -211 -26 -42 -41 -86 -62 -180
-12 -52 -13 -172 -1 -179 4 -3 11 -29 14 -58 8 -74 60 -181 120 -250 29 -31
57 -58 62 -58 6 0 28 -10 50 -21 35 -19 50 -21 125 -16 107 7 114 9 180 45
l55 29 0 141 c0 99 4 145 13 153 19 20 14 66 -10 104 -27 41 -58 52 -103 36
-39 -14 -102 -14 -110 -1 -3 6 -24 10 -46 10 -34 0 -42 -5 -59 -32 -28 -46
-25 -72 11 -102 33 -28 52 -31 112 -17 54 13 77 -11 77 -78 0 -59 -11 -92 -42
-123 -35 -35 -120 -32 -183 7 -86 54 -111 99 -129 235 -2 14 -6 41 -10 60 -8
43 33 191 62 223 10 12 30 41 43 65 25 46 116 112 154 112 11 0 43 -16 72 -36
67 -46 122 -55 152 -25 51 51 -15 154 -120 185 -85 26 -144 21 -224 -18z"/>
<path d="M4080 2740 c-23 -23 -24 -32 -5 -85 12 -32 15 -102 14 -335 0 -162
-5 -317 -10 -345 -30 -156 -20 -199 49 -207 100 -12 101 -7 95 360 -2 187 -1
302 5 302 20 0 162 -252 162 -286 0 -8 4 -22 9 -32 6 -9 22 -44 37 -77 15 -33
37 -75 49 -95 13 -19 28 -51 34 -71 15 -47 57 -85 104 -93 31 -6 41 -3 62 18
27 27 31 55 14 88 -14 26 -24 98 -22 158 1 25 1 63 1 85 0 22 0 45 0 50 8 121
13 232 12 276 -1 31 6 86 14 123 24 101 21 140 -10 165 -38 30 -94 28 -124 -4
-19 -20 -22 -30 -15 -62 14 -68 11 -181 -11 -456 l-7 -87 -22 32 c-12 18 -26
44 -30 58 -12 39 -74 160 -106 207 -16 23 -29 47 -29 54 0 6 -13 35 -29 63
-16 28 -34 69 -40 91 -12 47 -61 97 -110 114 -48 16 -68 14 -91 -9z"/>
<path d="M2852 2690 c-34 -21 -34 -21 -27 -78 8 -61 8 -262 1 -616 -4 -189 -2
-222 11 -243 24 -37 53 -44 114 -27 66 17 150 18 218 2 39 -9 57 -9 77 1 25
11 26 15 22 68 -6 69 -25 87 -83 79 -22 -3 -74 -9 -116 -12 -114 -10 -109 -27
-109 350 0 202 4 322 11 347 15 47 0 88 -43 124 -36 30 -35 30 -76 5z"/>
<path d="M3561 2693 c-5 -11 -8 -29 -5 -40 3 -12 -4 -59 -16 -105 -13 -45 -28
-112 -35 -148 -28 -146 -44 -208 -63 -251 -11 -24 -27 -72 -35 -106 -9 -34
-22 -75 -30 -90 -73 -137 -81 -173 -46 -217 24 -30 53 -33 102 -10 31 15 35
22 45 78 19 99 40 161 66 189 23 25 32 27 98 27 104 -1 149 -23 166 -82 7 -24
12 -72 11 -106 -2 -54 1 -64 22 -82 13 -11 34 -23 47 -26 30 -8 88 3 107 22
24 24 19 84 -9 113 -13 15 -38 70 -56 126 -18 55 -38 114 -45 130 -20 48 -43
126 -55 190 -7 33 -23 88 -36 122 -12 35 -24 89 -25 120 -2 62 -28 126 -57
142 -10 5 -45 13 -79 16 -54 7 -62 5 -72 -12z m119 -303 c5 -30 16 -71 24 -90
25 -65 36 -106 36 -138 l0 -32 -69 0 c-91 0 -95 6 -75 106 21 106 57 225 66
216 4 -4 12 -32 18 -62z"/>
<path d="M2254 2635 c-13 -20 -15 -39 -10 -98 8 -89 8 -134 3 -462 -3 -178 -9
-275 -18 -309 -14 -48 -14 -48 15 -73 26 -22 36 -24 80 -19 157 19 181 19 230
-3 43 -19 51 -19 82 -6 30 12 34 18 34 52 0 21 -7 49 -16 61 -14 21 -22 22
-140 22 l-125 0 -13 33 c-19 46 -5 254 18 269 16 11 75 10 115 -2 89 -25 135
84 57 135 -21 14 -31 15 -61 5 -22 -7 -55 -9 -81 -5 l-44 6 4 115 c3 92 7 118
21 134 27 30 79 35 142 16 52 -17 55 -17 86 1 46 27 49 71 7 106 -29 25 -35
26 -108 21 -54 -4 -95 -1 -137 10 -87 23 -121 21 -141 -9z"/>
<path d="M1960 2575 c-58 -8 -152 -21 -210 -29 -58 -9 -149 -20 -203 -26 -58
-6 -114 -18 -135 -29 l-36 -18 33 -18 c45 -23 30 -35 -61 -50 l-73 -12 55 -1
c30 0 82 4 115 9 86 13 82 13 455 43 l145 11 17 54 c10 29 23 59 29 67 14 17
13 17 -131 -1z"/>
<path d="M1840 2293 c-235 -17 -686 -86 -708 -108 -3 -3 107 -5 244 -5 248 0
500 14 540 30 11 4 27 26 36 49 l16 41 -41 -2 c-23 -1 -62 -3 -87 -5z"/>
<path d="M1574 2049 c-122 -10 -268 -25 -325 -33 -149 -22 -426 -97 -304 -82
154 19 305 27 460 25 99 -2 226 -2 283 1 l103 4 29 47 c16 26 26 50 23 53 -8
7 2 8 -269 -15z"/>
<path d="M688 2023 c7 -3 16 -2 19 1 4 3 -2 6 -13 5 -11 0 -14 -3 -6 -6z"/>
<path d="M8300 1889 c-233 -10 -491 -26 -679 -44 -85 -8 -202 -15 -260 -15
-58 0 -129 -3 -157 -6 l-50 -6 -14 -61 c-7 -34 -33 -101 -58 -150 -24 -48 -43
-89 -41 -91 10 -7 787 21 944 35 61 5 117 9 126 9 8 0 54 33 101 73 46 39 135
113 196 162 61 50 111 93 112 98 0 4 -10 6 -22 5 -13 0 -102 -5 -198 -9z"/>
<path d="M1480 1795 c-185 -24 -550 -100 -550 -114 0 -4 -8 -7 -17 -7 -30 -1
-228 -36 -233 -42 -7 -6 241 5 475 23 105 8 257 16 340 19 82 2 151 9 153 14
1 5 18 35 37 66 l34 56 -72 -1 c-40 -1 -115 -7 -167 -14z"/>
<path d="M6818 1791 l-67 -6 -55 -82 c-30 -45 -83 -118 -118 -161 -155 -194
-254 -329 -247 -336 2 -2 32 1 67 7 55 9 64 14 83 43 39 64 62 74 163 74 l91
0 -3 -50 -4 -50 59 2 c67 3 70 7 72 119 0 37 8 133 16 215 23 230 23 234 16
232 -3 -1 -36 -4 -73 -7z m-62 -248 c-6 -50 -14 -95 -17 -98 -4 -3 -29 -8 -58
-12 -42 -5 -51 -3 -51 10 0 9 4 18 10 22 5 3 35 44 65 91 31 47 58 84 60 82 1
-2 -3 -44 -9 -95z"/>
<path d="M6219 1765 c-64 -23 -103 -46 -142 -84 -70 -66 -83 -117 -46 -177 23
-37 86 -78 136 -89 87 -18 55 -91 -48 -110 -41 -8 -79 7 -79 31 0 20 -37 32
-88 26 -33 -3 -46 -10 -54 -27 -14 -31 18 -85 68 -116 31 -19 46 -21 112 -17
78 5 145 30 215 82 40 30 87 104 87 139 0 42 -59 96 -140 127 -59 23 -65 28
-68 57 -4 37 10 47 80 57 51 8 88 -5 88 -29 0 -22 17 -27 59 -15 31 8 42 17
50 42 30 85 -109 148 -230 103z"/>
<path d="M5759 1753 c-63 -4 -68 -6 -79 -32 -14 -34 -90 -144 -177 -256 -91
-117 -193 -258 -193 -267 0 -4 25 -8 55 -8 44 0 59 4 73 22 63 77 62 77 147
80 l80 3 3 -50 3 -50 63 3 62 4 12 101 c7 56 15 136 18 177 3 41 12 116 20
165 18 114 18 115 -3 113 -10 -1 -48 -3 -84 -5z m-70 -259 c-6 -43 -16 -82
-22 -86 -7 -4 -33 -8 -59 -8 l-48 0 67 90 c36 50 68 89 70 87 2 -2 -2 -39 -8
-83z"/>
<path d="M5292 1687 c-26 -24 -63 -54 -82 -67 -19 -13 -53 -39 -74 -59 -50
-44 -56 -30 -22 54 38 96 37 103 -26 101 -44 -1 -53 -4 -56 -21 -2 -11 -23
-63 -47 -115 -23 -52 -50 -115 -58 -140 -9 -25 -34 -96 -56 -159 -40 -110 -41
-113 -19 -107 13 3 40 6 61 6 37 0 37 1 76 83 42 91 86 142 101 117 5 -8 19
-54 31 -102 l21 -88 69 0 c38 0 69 2 69 5 0 4 -7 19 -15 36 -9 16 -27 82 -42
146 l-25 117 34 31 c32 28 161 137 218 184 l25 20 -68 1 c-66 0 -69 -1 -115
-43z"/>
<path d="M4641 1696 l-115 -11 -42 -100 c-24 -55 -57 -140 -75 -190 -17 -49
-44 -117 -59 -150 -47 -104 -47 -100 12 -99 l51 2 51 98 51 99 39 -1 c21 -1
42 -7 46 -14 5 -7 11 -49 15 -93 l7 -79 46 6 c24 3 50 6 56 6 7 0 11 37 11
115 0 88 3 115 13 115 7 0 35 22 62 49 61 61 93 147 70 188 -20 35 -59 62 -95
67 -16 2 -81 -2 -144 -8z m93 -119 c24 -18 11 -62 -27 -91 -21 -16 -145 -42
-154 -32 -1 1 7 32 19 69 l20 67 62 0 c36 0 70 -6 80 -13z"/>
<path d="M4179 1673 l-106 -4 -41 -97 c-23 -54 -55 -138 -73 -187 -17 -49 -48
-127 -70 -173 -22 -47 -38 -86 -37 -87 7 -3 323 14 344 19 15 4 29 20 39 42
27 64 28 64 -101 57 -69 -4 -115 -2 -113 3 2 5 12 30 23 57 l19 47 51 1 c28 0
71 4 95 7 40 6 48 12 73 56 l29 48 -101 -4 c-55 -2 -100 -2 -100 0 0 20 35
102 46 106 7 3 61 6 119 7 l106 1 24 49 c14 26 25 51 25 54 0 3 -33 4 -72 3
-40 -1 -121 -4 -179 -5z"/>
<path d="M3565 1555 c-52 -126 -165 -418 -165 -427 0 -5 24 -8 53 -8 l52 0 37
80 c36 80 37 80 75 80 61 0 153 28 207 63 68 43 126 134 126 196 -1 50 -11 68
-52 95 -23 15 -46 17 -161 14 l-134 -3 -38 -90z m226 -15 c32 0 25 -62 -10
-103 -24 -27 -42 -35 -92 -45 -35 -6 -65 -10 -67 -7 -5 4 14 64 40 124 l18 44
47 -7 c25 -3 54 -6 64 -6z"/>
<path d="M3320 1624 c-65 -9 -726 -45 -980 -54 -307 -11 -485 -21 -760 -46
-400 -36 -485 -47 -553 -73 -25 -10 -26 -11 -11 -43 26 -57 30 -63 60 -80 16
-10 59 -25 94 -34 56 -14 104 -15 365 -10 472 10 1690 67 1767 83 26 5 36 20
89 131 32 69 59 127 59 129 0 4 -93 2 -130 -3z"/>
<path d="M8120 1274 c-14 -2 -196 -10 -405 -19 -537 -23 -651 -31 -677 -50
-22 -15 -21 -15 17 -15 220 2 1045 42 1230 60 55 5 138 13 185 16 47 4 87 8
89 10 5 5 -403 2 -439 -2z"/>
<path d="M5023 783 c26 -2 68 -2 95 0 26 2 4 3 -48 3 -52 0 -74 -1 -47 -3z"/>
<path d="M5502 774 c8 -7 108 -7 115 0 4 3 -22 6 -57 6 -35 0 -61 -3 -58 -6z"/>
</g>
</svg>
